<?xml version="1.0" standalone="no"?><!-- Generator: Adobe Fireworks CS6, Export SVG Extension by Aaron Beall (http://fireworks.abeall.com) . Version: 0.6.1  --><!DOCTYPE svg PUBLIC "-//W3C//DTD SVG 1.1//EN" "http://www.w3.org/Graphics/SVG/1.1/DTD/svg11.dtd"><svg id="Untitled-Page%201" viewBox="0 0 135 180" style="background-color:#ffffff00" version="1.1"	xmlns="http://www.w3.org/2000/svg" xmlns:xlink="http://www.w3.org/1999/xlink" xml:space="preserve"	x="0px" y="0px" width="135px" height="180px">	<g id="Layer%201">		<g>			<rect opacity="0.4902" x="0" y="-1" width="135" height="181" stroke="#ffffff" stroke-width="1" fill="#ffffff"/>		</g>		<g>			<g>				<rect opacity="0.4902" x="1" y="-5" width="135" height="181" stroke="#ffffff" stroke-width="1" fill="#ffffff"/>				<path d="M 119.6288 129.7902 C 113.4246 127.6248 103.2872 126.9578 98.8553 125.2362 C 95.7532 124.0149 90.8231 122.7373 89.2719 120.7935 C 87.6656 118.9053 87.6656 105.1879 87.6656 105.1879 C 87.6656 105.1879 91.543 101.5781 93.1497 97.5236 C 94.756 93.47 95.8087 82.4734 95.8087 82.4734 C 95.8087 82.4734 96.1409 82.5845 96.6395 82.5845 C 97.803 82.5845 99.9079 81.8071 100.905 76.6978 C 102.1237 70.4224 104.4503 67.1458 103.8408 62.5361 C 103.3977 59.4258 102.0682 58.926 101.2928 58.926 C 100.905 58.926 100.6279 59.0371 100.6279 59.0371 C 100.6279 59.0371 103.7858 54.3721 103.7858 38.4889 C 103.7858 22.1611 91.2108 6.0557 67.9998 6 C 44.7338 6.0557 32.2143 22.1611 32.2143 38.4889 C 32.2143 54.3164 35.3718 59.0371 35.3718 59.0371 C 35.3718 59.0371 35.095 58.926 34.7072 58.926 C 33.8764 58.926 32.5469 59.4258 32.1588 62.5361 C 31.5497 67.1458 33.8209 70.4775 35.095 76.6978 C 36.0921 81.8071 38.197 82.5845 39.3605 82.5845 C 39.8591 82.5845 40.1914 82.4734 40.1914 82.4734 C 40.1914 82.4734 41.244 93.5255 42.8503 97.5236 C 44.457 101.5781 48.3344 105.1879 48.3344 105.1879 C 48.3344 105.1879 48.3344 118.9053 46.7281 120.7935 C 45.1215 122.6816 40.2468 124.0149 37.1443 125.2362 C 32.7128 126.9578 22.5754 127.6248 16.3713 129.7902 C 10.1668 131.9563 -9 141.0085 -9 166 L 145 166 C 145 141.0085 125.8883 131.9563 119.6288 129.7902 Z" fill="#d1d1d1"/>			</g>			<rect x="-11" y="163" width="171" height="23" fill="#d1d1d1"/>		</g>		<rect opacity="0.4902" x="1" y="-5" width="135" height="181" fill="none"/>	</g></svg>