<?xml version="1.0" standalone="no"?><!-- Generator: Adobe Fireworks CS6, Export SVG Extension by Aaron Beall (http://fireworks.abeall.com) . Version: 0.6.1  --><!DOCTYPE svg PUBLIC "-//W3C//DTD SVG 1.1//EN" "http://www.w3.org/Graphics/SVG/1.1/DTD/svg11.dtd"><svg id="Untitled-Page%201" viewBox="0 0 135 180" style="background-color:#ffffff00" version="1.1"	xmlns="http://www.w3.org/2000/svg" xmlns:xlink="http://www.w3.org/1999/xlink" xml:space="preserve"	x="0px" y="0px" width="135px" height="180px">	<defs>		<clipPath id="mask1">			<rect opacity="0.4902" x="0" y="-1" width="135" height="181" fill="none"/>		</clipPath>	</defs>	<g id="Layer%201">		<g>			<rect opacity="0.4902" x="0" y="-1" width="135" height="181" stroke="#ffffff" stroke-width="1" fill="#ffffff"/>		</g>			<rect opacity="0.4902" x="0" y="-1" width="135" height="181" fill="none"/>		<g clip-path="url(#mask1)">			<path d="M 71.3246 168 L 138 168 C 138 152.1665 125.6958 139.167 119.2944 136.917 C 112.8931 134.667 105.0782 132.0835 97.8451 130.4998 C 94.4365 129.75 89.6143 127.917 87.9519 125.9164 C 86.5562 124.238 86.918 115.6339 87.0698 112.9119 C 88.1384 112.8682 97.2877 112.426 105.3513 109.9558 C 109.1801 108.9316 112.7922 107.438 115.2211 105.2502 C 102.0017 88.3335 109.5676 63.25 106.907 42.167 C 104.2463 21.1667 92.2749 8 68.9968 8 C 68.1656 8 68.1656 8 68.1656 8 C 67.9402 8 67.7229 8.0093 67.5 8.0117 C 67.2771 8.0093 67.0598 8 66.8352 8 C 66.8352 8 66.8352 8 66.004 8 C 42.7251 8 30.7536 21.1667 28.093 42.167 C 25.4331 63.25 32.9984 88.3335 19.7798 105.2502 C 22.2078 107.438 25.8207 108.9316 29.6495 109.9558 C 37.7131 112.426 46.8615 112.8682 47.9302 112.9119 C 48.0828 115.6339 48.4438 124.238 47.0482 125.9164 C 45.3859 127.917 40.5637 129.75 37.1549 130.4998 C 29.9225 132.0835 22.1077 134.667 15.7056 136.917 C 9.3042 139.167 -3 152.1665 -3 168 L 63.6761 168 L 63.6761 168 " fill="#d1d1d1"/>			<rect x="-6" y="165" width="171" height="23" fill="#d1d1d1"/>		</g>	</g></svg>