<?xml version="1.0" encoding="utf-8"?>
<!-- Generator: Adobe Illustrator 17.1.0, SVG Export Plug-In . SVG Version: 6.00 Build 0)  -->
<!DOCTYPE svg PUBLIC "-//W3C//DTD SVG 1.1//EN" "http://www.w3.org/Graphics/SVG/1.1/DTD/svg11.dtd">
<svg version="1.1" id="Layer_1" xmlns="http://www.w3.org/2000/svg" xmlns:xlink="http://www.w3.org/1999/xlink" x="0px" y="0px"
	 width="60px" height="60px" viewBox="0 0 60 60" enable-background="new 0 0 60 60" xml:space="preserve">
<linearGradient id="SVGID_1_" gradientUnits="userSpaceOnUse" x1="29.995" y1="9.094947e-13" x2="29.995" y2="59.99">
	<stop  offset="0" style="stop-color:#4C7DCB"/>
	<stop  offset="1" style="stop-color:#1D4F91"/>
</linearGradient>
<path fill-rule="evenodd" clip-rule="evenodd" fill="url(#SVGID_1_)" d="M0,30C0,13.4,13.4,0,30,0c16.6,0,30,13.4,30,30
	c0,16.6-13.4,30-30,30C13.4,60,0,46.6,0,30z"/>
<path fill-rule="evenodd" clip-rule="evenodd" fill="#FFFFFF" d="M43.7,44.4H17.7V29.3h26.1V44.4z M22.5,18.3c0-0.9,0.8-1.7,1.7-1.7
	c0.9,0,1.7,0.8,1.7,1.7V24c0,0.9-0.8,1.7-1.7,1.7c-0.9,0-1.7-0.8-1.7-1.7V18.3z M35.5,18.3c0-0.9,0.8-1.7,1.7-1.7
	c0.9,0,1.7,0.8,1.7,1.7V24c0,0.9-0.8,1.7-1.7,1.7c-1,0-1.7-0.8-1.7-1.7V18.3z M45,20.7h-3.6v-2.4c0-2.3-1.9-4.2-4.3-4.2
	s-4.3,1.9-4.3,4.2v2.4h-4.4v-2.4c0-2.3-1.9-4.2-4.3-4.2S20,16,20,18.3v2.4h-3.6c-0.7,0-1.3,0.6-1.3,1.3v23.6c0,0.7,0.6,1.3,1.3,1.3
	H45c0.7,0,1.3-0.6,1.3-1.3V22C46.3,21.3,45.7,20.7,45,20.7z"/>
<path fill="#FFFFFF" d="M28.1,39.3h2.1v-3.9c0-0.4,0-0.7,0-0.7h0c0,0-0.1,0.3-0.4,0.5l-0.6,0.5l-1.4-1.4l2.6-2.4h2v7.4h2.1v2h-6.4
	V39.3z"/>
</svg>
