<?xml version="1.0" encoding="utf-8"?>
<!-- Generator: Adobe Illustrator 17.1.0, SVG Export Plug-In . SVG Version: 6.00 Build 0)  -->
<!DOCTYPE svg PUBLIC "-//W3C//DTD SVG 1.1//EN" "http://www.w3.org/Graphics/SVG/1.1/DTD/svg11.dtd">
<svg version="1.1" id="Layer_1" xmlns:sketch="http://www.bohemiancoding.com/sketch/ns"
	 xmlns="http://www.w3.org/2000/svg" xmlns:xlink="http://www.w3.org/1999/xlink" x="0px" y="0px" width="17px" height="18px"
	 viewBox="0 0 17 18" enable-background="new 0 0 17 18" xml:space="preserve">
<title>icon-search-gray</title>
<description>Created with Sketch (http://www.bohemiancoding.com/sketch)</description>
<g id="Page-1" sketch:type="MSPage">
	<g id="icon-search-gray" sketch:type="MSArtboardGroup">
		<g id="CNAT-svg-graphics_3-copy" transform="translate(-543.000000, -500.000000)" sketch:type="MSLayerGroup">
			<g id="Layer_2" transform="translate(194.000000, 312.000000)" sketch:type="MSShapeGroup">
				<path id="Shape" fill="#FFFFFF" d="M356.7,200.3l-5.2,5.1c-0.3,0.3-0.8,0.3-1.1,0l-1.1-1.1c-0.3-0.3-0.3-0.8,0-1.1l5.2-4.8
					c-0.8-1-1.3-2.7-1.3-4.2c0-3.6,3-6.4,6.6-6.3c3.6,0.1,6.3,3,6.3,6.6s-2.7,6.4-6.3,6.4C358.7,200.9,357.5,200.7,356.7,200.3
					L356.7,200.3z M359.7,190.6c-2.1-0.1-3.9,1.6-3.9,3.8c0,2.1,1.7,3.9,3.9,3.9c2.1,0,3.8-1.7,3.8-3.8S361.8,190.7,359.7,190.6
					L359.7,190.6z"/>
			</g>
		</g>
	</g>
</g>
</svg>
