<?xml version="1.0" encoding="utf-8"?>
<!-- Generator: Adobe Illustrator 17.1.0, SVG Export Plug-In . SVG Version: 6.00 Build 0)  -->
<!DOCTYPE svg PUBLIC "-//W3C//DTD SVG 1.1//EN" "http://www.w3.org/Graphics/SVG/1.1/DTD/svg11.dtd">
<svg version="1.1" id="Layer_1" xmlns="http://www.w3.org/2000/svg" xmlns:xlink="http://www.w3.org/1999/xlink" x="0px" y="0px"
	 width="32px" height="32px" viewBox="0 0 32 32" enable-background="new 0 0 32 32" xml:space="preserve">
<g>
	<g>
		<circle fill-rule="evenodd" clip-rule="evenodd" fill="#FFFFFF" cx="16.5" cy="16.5" r="15.5"/>
		<path fill-rule="evenodd" clip-rule="evenodd" fill="#C2C2C2" d="M0,16c0,8.8,7.2,16,16,16s16-7.2,16-16S24.8,0,16,0S0,7.2,0,16z
			 M1.9,16C1.9,8.2,8.2,1.9,16,1.9S30.1,8.2,30.1,16S23.8,30.1,16,30.1S1.9,23.8,1.9,16z"/>
	</g>
	<g>
		<g>
			<path fill="#7D7D7D" d="M19.6,15.8l-0.2-0.2l0,0l-0.2-0.1l-5.3-4.2c-0.4-0.4-1.1-0.4-1.4,0l-0.1,0.1c-0.4,0.4-0.4,1,0,1.4L16,17
				l-3.3,4.3c-0.4,0.4-0.4,1,0.1,1.4l0.1,0.1c0.4,0.4,1.1,0.3,1.5-0.1l4.9-4.7l0.1-0.1l0.2-0.2C20.1,17.2,20.1,16.3,19.6,15.8z"/>
		</g>
	</g>
</g>
</svg>
