<?xml version="1.0" encoding="utf-8"?>
<!-- Generator: Adobe Illustrator 17.1.0, SVG Export Plug-In . SVG Version: 6.00 Build 0)  -->
<!DOCTYPE svg PUBLIC "-//W3C//DTD SVG 1.1//EN" "http://www.w3.org/Graphics/SVG/1.1/DTD/svg11.dtd">
<svg version="1.1" id="Layer_1" xmlns="http://www.w3.org/2000/svg" xmlns:xlink="http://www.w3.org/1999/xlink" x="0px" y="0px"
	 width="43px" height="43px" viewBox="0 0 43 43" enable-background="new 0 0 43 43" xml:space="preserve">
<g>
	<g>
		<linearGradient id="SVGID_1_" gradientUnits="userSpaceOnUse" x1="21.495" y1="9.094947e-13" x2="21.495" y2="42.99">
			<stop  offset="0" style="stop-color:#108EC1"/>
			<stop  offset="1" style="stop-color:#174BA4"/>
		</linearGradient>
		<path fill-rule="evenodd" clip-rule="evenodd" fill="url(#SVGID_1_)" d="M0,21.5C0,9.6,9.6,0,21.5,0C33.4,0,43,9.6,43,21.5
			C43,33.4,33.4,43,21.5,43C9.6,43,0,33.4,0,21.5z"/>
	</g>
</g>
<path fill="#FFFFFF" d="M24.1,15.2l0.3,0.4l0,0l0.2,0.3l7.4,8.7c0.7,0.7,0.6,1.7,0,2.4l-0.2,0.2c-0.7,0.6-1.7,0.6-2.4,0l-7.3-6
	l-7.5,5.4c-0.7,0.6-1.8,0.6-2.4-0.1L11.9,26c-0.6-0.7-0.6-1.8,0.1-2.4l8.3-8.1l0.1-0.1l0.3-0.3C21.7,14.2,23.2,14.3,24.1,15.2z"/>
</svg>
