<?xml version="1.0" encoding="utf-8"?>
<!-- Generator: Adobe Illustrator 17.1.0, SVG Export Plug-In . SVG Version: 6.00 Build 0)  -->
<!DOCTYPE svg PUBLIC "-//W3C//DTD SVG 1.1//EN" "http://www.w3.org/Graphics/SVG/1.1/DTD/svg11.dtd">
<svg version="1.1" id="Layer_1" xmlns="http://www.w3.org/2000/svg" xmlns:xlink="http://www.w3.org/1999/xlink" x="0px" y="0px"
	 width="20.2px" height="20.2px" viewBox="0 0 20.2 20.2" enable-background="new 0 0 20.2 20.2" xml:space="preserve">
<linearGradient id="SVGID_1_" gradientUnits="userSpaceOnUse" x1="10.08" y1="0" x2="10.08" y2="20.16">
	<stop  offset="0.336" style="stop-color:#F37E00"/>
	<stop  offset="0.5551" style="stop-color:#E27400"/>
	<stop  offset="0.8989" style="stop-color:#CA6700"/>
</linearGradient>
<path fill-rule="evenodd" clip-rule="evenodd" fill="url(#SVGID_1_)" d="M0,10.1C0,4.5,4.5,0,10.1,0s10.1,4.5,10.1,10.1
	s-4.5,10.1-10.1,10.1S0,15.6,0,10.1z"/>
<rect x="4.4" y="8.9" fill-rule="evenodd" clip-rule="evenodd" fill="#FFFFFF" stroke="#FF6A00" stroke-linecap="round" stroke-linejoin="round" stroke-miterlimit="10" width="1" height="1"/>
<rect x="15.4" y="8.9" fill-rule="evenodd" clip-rule="evenodd" fill="#FFFFFF" stroke="#FF6A00" stroke-linecap="round" stroke-linejoin="round" stroke-miterlimit="10" width="1" height="1"/>
<g opacity="0.1">
	<polygon fill-rule="evenodd" clip-rule="evenodd" points="5.4,10.9 5.4,14.9 6.4,14.9 6.4,13.9 15.4,13.9 15.4,14.9 16.4,14.9 
		16.4,10.9 	"/>
	<rect x="7.4" y="5.9" fill-rule="evenodd" clip-rule="evenodd" width="7.1" height="4"/>
	<rect x="7.4" y="14.9" fill-rule="evenodd" clip-rule="evenodd" width="7.1" height="2"/>
</g>
<g>
	<polygon fill-rule="evenodd" clip-rule="evenodd" fill="#FBFBFB" points="4.4,9.9 4.4,13.9 5.4,13.9 5.4,12.9 14.4,12.9 14.4,13.9 
		15.4,13.9 15.4,9.9 	"/>
	<rect x="6.4" y="4.9" fill-rule="evenodd" clip-rule="evenodd" fill="#FBFBFB" width="7.1" height="4"/>
	<rect x="6.4" y="13.9" fill-rule="evenodd" clip-rule="evenodd" fill="#FBFBFB" width="7.1" height="2"/>
</g>
</svg>
