<?xml version="1.0" encoding="utf-8"?>
<!-- Generator: Adobe Illustrator 17.1.0, SVG Export Plug-In . SVG Version: 6.00 Build 0)  -->
<!DOCTYPE svg PUBLIC "-//W3C//DTD SVG 1.1//EN" "http://www.w3.org/Graphics/SVG/1.1/DTD/svg11.dtd">
<svg version="1.1" id="Layer_1" xmlns="http://www.w3.org/2000/svg" xmlns:xlink="http://www.w3.org/1999/xlink" x="0px" y="0px"
	 width="34px" height="34px" viewBox="0 0 34 34" enable-background="new 0 0 34 34" xml:space="preserve">
<g>
	<path fill="#FFFFFF" d="M17,33C8.2,33,1,25.8,1,17S8.2,1,17,1s16,7.2,16,16S25.8,33,17,33z"/>
	<path fill="#C2C2C1" d="M17,2c8.3,0,15,6.7,15,15s-6.7,15-15,15S2,25.3,2,17S8.7,2,17,2 M17,0C7.6,0,0,7.6,0,17s7.6,17,17,17
		s17-7.6,17-17S26.4,0,17,0L17,0z"/>
</g>
<g>
	<path fill="#444444" d="M21.9,16.2V18h-9.1v-1.8H21.9z"/>
</g>
</svg>
