<?xml version="1.0" encoding="utf-8"?>
<!-- Generator: Adobe Illustrator 17.1.0, SVG Export Plug-In . SVG Version: 6.00 Build 0)  -->
<!DOCTYPE svg PUBLIC "-//W3C//DTD SVG 1.1//EN" "http://www.w3.org/Graphics/SVG/1.1/DTD/svg11.dtd">
<svg version="1.1" id="Layer_1" xmlns="http://www.w3.org/2000/svg" xmlns:xlink="http://www.w3.org/1999/xlink" x="0px" y="0px"
	 width="60px" height="60px" viewBox="0 0 60 60" enable-background="new 0 0 60 60" xml:space="preserve">
<linearGradient id="SVGID_1_" gradientUnits="userSpaceOnUse" x1="29.995" y1="9.094947e-13" x2="29.995" y2="59.99">
	<stop  offset="0" style="stop-color:#4C7DCB"/>
	<stop  offset="1" style="stop-color:#1D4F91"/>
</linearGradient>
<path fill-rule="evenodd" clip-rule="evenodd" fill="url(#SVGID_1_)" d="M0,30C0,13.4,13.4,0,30,0c16.6,0,30,13.4,30,30
	c0,16.6-13.4,30-30,30C13.4,60,0,46.6,0,30z"/>
<path fill="#FFFFFF" d="M44.3,35.6c0-2.7-2.1-4.8-4.8-4.8s-4.8,2.2-4.8,4.8c0,1,0.3,2,0.9,2.8c-0.7,1.3-2,2-3.6,2
	c-2.2,0-4-1.7-4-3.9v-3.5c4.4-1,7.7-4.5,7.7-8.7v-4.5c0-1.9-1.5-3.4-3.4-3.4c-1.9,0-3.4,1.5-3.4,3.4c0,1.3,0.8,2.5,1.9,3v1.5
	c0,2.3-2.4,4.2-5.3,4.2s-5.3-1.9-5.3-4.2v-1.5c1.1-0.5,1.9-1.7,1.9-3c0-1.9-1.5-3.4-3.4-3.4c-1.9,0-3.4,1.5-3.4,3.4v4.5
	c0,4.2,3.3,7.7,7.7,8.7v3.5c0,4.9,4,8.7,8.8,8.7c3.5,0,6.5-1.9,7.9-4.8C42.4,40.1,44.3,38.1,44.3,35.6z"/>
</svg>
