<?xml version="1.0" encoding="UTF-8" standalone="no"?>
<svg width="20px" height="20px" viewBox="0 0 20 20" version="1.1" xmlns="http://www.w3.org/2000/svg" xmlns:xlink="http://www.w3.org/1999/xlink" xmlns:sketch="http://www.bohemiancoding.com/sketch/ns">
    <title>icon-twitter-sm</title>
    <description>Created with Sketch (http://www.bohemiancoding.com/sketch)</description>
    <defs>
        <linearGradient x1="49.995625%" y1="27.50125%" x2="49.995625%" y2="75.00125%" id="linearGradient-1">
            <stop stop-color="#00B2EE" offset="0%"></stop>
            <stop stop-color="#00AAE1" offset="100%"></stop>
        </linearGradient>
    </defs>
    <g id="Page-1" stroke="none" stroke-width="1" fill="none" fill-rule="evenodd" sketch:type="MSPage">
        <g id="icon-twitter-sm" sketch:type="MSArtboardGroup">
            <g id="Shape-+-Shape-+-Shape" sketch:type="MSLayerGroup">
                <path d="M-0.093125,9.880625 C-0.093125,4.355625 4.38125,-0.119375 9.906875,-0.119375 C15.4325,-0.119375 19.906875,4.355625 19.906875,9.880625 C19.906875,15.405625 15.4325,19.880625 9.906875,19.880625 C4.38125,19.880625 -0.093125,15.405625 -0.093125,9.880625 L-0.093125,9.880625 Z" id="Shape" fill="url(#linearGradient-1)" sketch:type="MSShapeGroup"></path>
                <path d="M15.9625,7.411875 C15.56875,7.586875 15.15,7.705625 14.70625,7.755625 C15.15625,7.486875 15.505,7.061875 15.668125,6.549375 C15.2425,6.799375 14.780625,6.980625 14.280625,7.080625 C13.88,6.655625 13.31125,6.386875 12.68625,6.386875 C11.48,6.386875 10.49875,7.368125 10.49875,8.574375 C10.49875,8.743125 10.5175,8.911875 10.555,9.074375 C8.74375,8.980625 7.130625,8.111875 6.05625,6.786875 C5.8675,7.1125 5.76125,7.486875 5.76125,7.886875 C5.76125,8.643125 6.1425,9.311875 6.73125,9.705625 C6.375,9.693125 6.0375,9.593125 5.74375,9.431875 L5.74375,9.463125 C5.74375,10.519375 6.4925,11.400625 7.49375,11.600625 C7.3125,11.650625 7.1175,11.681875 6.918125,11.681875 C6.780625,11.681875 6.64375,11.663125 6.50625,11.638125 C6.786875,12.506875 7.593125,13.138125 8.55,13.156875 C7.800625,13.744375 6.85625,14.094375 5.8375,14.094375 C5.6625,14.094375 5.4875,14.08125 5.3125,14.063125 C6.28125,14.681875 7.43125,15.044375 8.661875,15.044375 C12.68125,15.044375 14.88,11.713125 14.88,8.825625 L14.87375,8.544375 C15.299375,8.236875 15.668125,7.849375 15.9625,7.411875 L15.9625,7.411875 Z" id="Shape" opacity="0.3" fill="#0F0102" sketch:type="MSShapeGroup"></path>
                <path d="M15.9625,6.786875 C15.56875,6.961875 15.15,7.080625 14.70625,7.130625 C15.15625,6.861875 15.505,6.436875 15.668125,5.924375 C15.2425,6.174375 14.780625,6.355625 14.280625,6.455625 C13.88,6.030625 13.31125,5.761875 12.68625,5.761875 C11.48,5.761875 10.49875,6.743125 10.49875,7.949375 C10.49875,8.118125 10.5175,8.286875 10.555,8.449375 C8.74375,8.355625 7.130625,7.486875 6.05625,6.161875 C5.8675,6.4875 5.76125,6.861875 5.76125,7.261875 C5.76125,8.018125 6.1425,8.686875 6.73125,9.080625 C6.375,9.068125 6.0375,8.968125 5.74375,8.806875 L5.74375,8.838125 C5.74375,9.894375 6.4925,10.775625 7.49375,10.975625 C7.3125,11.025625 7.1175,11.056875 6.918125,11.056875 C6.780625,11.056875 6.64375,11.038125 6.50625,11.013125 C6.786875,11.881875 7.593125,12.513125 8.55,12.531875 C7.800625,13.119375 6.85625,13.469375 5.8375,13.469375 C5.6625,13.469375 5.4875,13.45625 5.3125,13.438125 C6.28125,14.056875 7.43125,14.419375 8.661875,14.419375 C12.68125,14.419375 14.88,11.088125 14.88,8.200625 L14.87375,7.919375 C15.299375,7.611875 15.668125,7.224375 15.9625,6.786875 L15.9625,6.786875 Z" id="Shape" fill="#FFFFFF" sketch:type="MSShapeGroup"></path>
            </g>
        </g>
    </g>
</svg>