<?xml version="1.0" standalone="no"?><!-- Generator: Adobe Fireworks CS6, Export SVG Extension by Aaron Beall (http://fireworks.abeall.com) . Version: 0.6.1  --><!DOCTYPE svg PUBLIC "-//W3C//DTD SVG 1.1//EN" "http://www.w3.org/Graphics/SVG/1.1/DTD/svg11.dtd"><svg id="Untitled-Page%201" viewBox="0 0 60 60" style="background-color:#ffffff00" version="1.1"	xmlns="http://www.w3.org/2000/svg" xmlns:xlink="http://www.w3.org/1999/xlink" xml:space="preserve"	x="0px" y="0px" width="60px" height="60px">	<defs>		<linearGradient id="gradient1" x1="60.5636%" y1="113.892%" x2="60.5636%" y2="54.4149%">			<stop stop-color="#808e1c" stop-opacity="1" offset="0%"/>			<stop stop-color="#b1c44b" stop-opacity="1" offset="100%"/>		</linearGradient>	</defs>	<g id="Layer%201">		<path id="Ellipse" d="M 0 30 C 0 13.4314 13.4312 0 30 0 C 46.5691 0 60 13.4314 60 30 C 60 46.5684 46.5691 60 30 60 C 13.4312 60 0 46.5684 0 30 Z" fill="url(#gradient1)"/>		<path d="M 15 40.5 L 45 40.5 L 45 44.5 L 15 44.5 L 15 40.5 Z" fill="#ffffff"/>		<path d="M 16 38.5 L 16 22.5 L 20 22.5 L 20 38.5 L 16 38.5 Z" fill="#ffffff"/>		<path d="M 24 38.5 L 24 15.5 L 28 15.5 L 28 38.5 L 24 38.5 Z" fill="#ffffff"/>		<path d="M 32 38.5 L 32 24.5 L 36 24.5 L 36 38.5 L 32 38.5 Z" fill="#ffffff"/>		<path d="M 39 38.5 L 40 32.5 L 43 32.5 L 43 38.5 L 39 38.5 Z" fill="#ffffff"/>	</g></svg>