<?xml version="1.0" encoding="utf-8"?>
<!-- Generator: Adobe Illustrator 17.1.0, SVG Export Plug-In . SVG Version: 6.00 Build 0)  -->
<!DOCTYPE svg PUBLIC "-//W3C//DTD SVG 1.1//EN" "http://www.w3.org/Graphics/SVG/1.1/DTD/svg11.dtd">
<svg version="1.1" id="Layer_1" xmlns="http://www.w3.org/2000/svg" xmlns:xlink="http://www.w3.org/1999/xlink" x="0px" y="0px"
	 width="143.9px" height="42.4px" viewBox="0 0 143.9 42.4" enable-background="new 0 0 143.9 42.4" xml:space="preserve">
<g>
	<g>
		
			<path fill-rule="evenodd" clip-rule="evenodd" fill="#FFFFFF" stroke="#EDEDED" stroke-linecap="square" stroke-miterlimit="10" d="
			M15.4,0.5c-8,11.7-14.8,21-14.8,21s3.3,4.9,14.8,20.4h122.3c3.2,0,5.8-2.6,5.8-5.8V6.2c0-3.2-2.6-5.8-5.8-5.8H15.4z"/>
		<linearGradient id="SVGID_1_" gradientUnits="userSpaceOnUse" x1="40.1097" y1="9.5" x2="40.1097" y2="33.5">
			<stop  offset="0" style="stop-color:#0DA0C9"/>
			<stop  offset="1" style="stop-color:#1655A8"/>
		</linearGradient>
		<rect x="24.6" y="9.5" fill-rule="evenodd" clip-rule="evenodd" fill="url(#SVGID_1_)" width="31" height="24"/>
		<path fill="#FFFFFF" d="M46.7,15.5H34.5c-0.5,0-0.9,0.4-0.9,1c0,0.5,0.4,1,0.9,1h12.2c0.5,0,0.9-0.5,0.9-1
			C47.6,15.9,47.2,15.5,46.7,15.5z"/>
		<path fill="#FFFFFF" d="M46.7,20.5H34.5c-0.5,0-0.9,0.5-0.9,1s0.4,1,0.9,1h12.2c0.5,0,0.9-0.5,0.9-1S47.2,20.5,46.7,20.5z"/>
		<path fill="#FFFFFF" d="M46.7,25.5H34.5c-0.5,0-0.9,0.5-0.9,1s0.4,1,0.9,1h12.2c0.5,0,0.9-0.5,0.9-1S47.2,25.5,46.7,25.5z"/>
	</g>
	<rect x="66.6" y="5.5" fill="none" width="65.8" height="32.3"/>
	<text transform="matrix(1 0 0 1 66.6097 20.5779)"><tspan x="0" y="0" fill="#1576B6" font-family="'HelveticaNeue'" font-size="14">IN THIS</tspan><tspan x="0" y="14" fill="#1576B6" font-family="'HelveticaNeue'" font-size="14">SECTION</tspan></text>
</g>
</svg>
