<?xml version="1.0" standalone="no"?><!-- Generator: Adobe Fireworks CS6, Export SVG Extension by Aaron Beall (http://fireworks.abeall.com) . Version: 0.6.1  --><!DOCTYPE svg PUBLIC "-//W3C//DTD SVG 1.1//EN" "http://www.w3.org/Graphics/SVG/1.1/DTD/svg11.dtd"><svg id="Untitled-Page%201" viewBox="0 0 21 21" style="background-color:#ffffff00" version="1.1"	xmlns="http://www.w3.org/2000/svg" xmlns:xlink="http://www.w3.org/1999/xlink" xml:space="preserve"	x="0px" y="0px" width="21px" height="21px">	<g id="Layer%201">		<path id="Ellipse" d="M 1 10.5 C 1 5.2532 5.2532 1 10.5 1 C 15.7468 1 20 5.2532 20 10.5 C 20 15.7468 15.7468 20 10.5 20 C 5.2532 20 1 15.7468 1 10.5 Z" stroke="#ffffff" stroke-width="2" fill="#ffffff"/>		<path d="M 12.7283 9.6152 L 12.5878 9.4805 L 12.5698 9.4623 C 12.5383 9.4301 12.5045 9.3984 12.4701 9.3674 L 9.1744 6.2027 C 8.9197 5.9255 8.5139 5.9337 8.2679 6.2205 L 8.1799 6.323 C 7.9338 6.6101 7.9412 7.0675 8.1958 7.3446 L 10.4987 10.4594 L 8.4478 13.6987 C 8.2108 13.9952 8.2322 14.4519 8.4954 14.719 L 8.5892 14.8144 C 8.8524 15.0815 9.2578 15.0573 9.4946 14.761 L 12.5891 11.215 C 12.6022 11.2021 12.6162 11.1901 12.6278 11.1763 L 12.75 11.0338 C 13.0916 10.6352 13.0818 10 12.7283 9.6152 Z" stroke="#4e7dc6" stroke-width="1" fill="#657066"/>	</g></svg>