<?xml version="1.0" encoding="utf-8"?>
<!-- Generator: Adobe Illustrator 17.1.0, SVG Export Plug-In . SVG Version: 6.00 Build 0)  -->
<!DOCTYPE svg PUBLIC "-//W3C//DTD SVG 1.1//EN" "http://www.w3.org/Graphics/SVG/1.1/DTD/svg11.dtd">
<svg version="1.1" id="Layer_1" xmlns="http://www.w3.org/2000/svg" xmlns:xlink="http://www.w3.org/1999/xlink" x="0px" y="0px"
	 width="32px" height="32px" viewBox="0 0 32 32" enable-background="new 0 0 32 32" xml:space="preserve">
<g>
	<g>
		
			<linearGradient id="SVGID_1_" gradientUnits="userSpaceOnUse" x1="16" y1="44" x2="16" y2="12" gradientTransform="matrix(1 0 0 -1 0 44)">
			<stop  offset="0" style="stop-color:#108EC1"/>
			<stop  offset="1" style="stop-color:#174BA4"/>
		</linearGradient>
		<path fill="url(#SVGID_1_)" d="M0,16C0,7.1,7.1,0,16,0s16,7.1,16,16s-7.1,16-16,16S0,24.9,0,16z"/>
	</g>
</g>
<path fill="#FFFFFF" d="M15,21.2L14.8,21l0,0l-0.1-0.2l-4.5-5.3c-0.4-0.4-0.4-1,0-1.5l0.1-0.1c0.4-0.4,1-0.4,1.5,0l4.4,3.6l4.6-3.3
	c0.4-0.4,1.1-0.4,1.5,0.1l0.2,0.3c0.4,0.4,0.4,1.1-0.1,1.5l-5,4.9l-0.1,0.1L17,21.3C16.4,21.8,15.5,21.8,15,21.2z"/>
</svg>
