<?xml version="1.0" standalone="no"?><!-- Generator: Adobe Fireworks CS6, Export SVG Extension by Aaron Beall (http://fireworks.abeall.com) . Version: 0.6.1  --><!DOCTYPE svg PUBLIC "-//W3C//DTD SVG 1.1//EN" "http://www.w3.org/Graphics/SVG/1.1/DTD/svg11.dtd"><svg id="Untitled-Page%201" viewBox="0 0 28 28" style="background-color:#ffffff00" version="1.1"	xmlns="http://www.w3.org/2000/svg" xmlns:xlink="http://www.w3.org/1999/xlink" xml:space="preserve"	x="0px" y="0px" width="28px" height="28px">	<defs>		<linearGradient id="gradient1" x1="57.6572%" y1="26.841%" x2="203.2449%" y2="160.9618%">			<stop stop-color="#000000" stop-opacity="0" offset="0%"/>			<stop stop-color="#181818" stop-opacity="1" offset="100%"/>		</linearGradient>	</defs>	<g id="Layer%201">		<path opacity="0.9098" d="M 15.0015 1.9945 C 7.7942 1.9945 1.9514 7.8372 1.9514 15.0445 C 1.9514 22.2518 7.7942 28.0945 15.0015 28.0945 C 22.209 28.0945 28.0515 22.2518 28.0515 15.0445 C 28.0515 7.8372 22.209 1.9945 15.0015 1.9945 ZM 15.0015 26.3881 C 8.7366 26.3881 3.6581 21.3093 3.6581 15.0445 C 3.6581 8.7797 8.7366 3.701 15.0015 3.701 C 21.2664 3.701 26.3451 8.7797 26.3451 15.0445 C 26.3451 21.3093 21.2664 26.3881 15.0015 26.3881 Z" fill="url(#gradient1)"/>		<g>			<path d="M 16.6606 13.1074 L 16.493 12.9648 L 16.4717 12.9455 C 16.434 12.9114 16.3936 12.8778 16.3525 12.8449 L 12.4197 9.4933 C 12.1157 9.1997 11.6315 9.2084 11.3379 9.5121 L 11.233 9.6207 C 10.9393 9.9247 10.948 10.4091 11.2518 10.7026 L 14 14.0015 L 11.5526 17.4323 C 11.2698 17.7463 11.2952 18.23 11.6094 18.5129 L 11.7214 18.6139 C 12.0354 18.8968 12.5192 18.8712 12.8019 18.5573 L 16.4946 14.8017 C 16.5103 14.7881 16.5269 14.7754 16.5408 14.7608 L 16.6865 14.6099 C 17.0942 14.1877 17.0825 13.515 16.6606 13.1074 Z" fill="#70f4ff"/>			<path d="M 14.0015 0.9945 C 6.7942 0.9945 0.9514 6.8372 0.9514 14.0445 C 0.9514 21.2518 6.7942 27.0945 14.0015 27.0945 C 21.209 27.0945 27.0515 21.2518 27.0515 14.0445 C 27.0515 6.8372 21.209 0.9945 14.0015 0.9945 ZM 14.0015 25.3881 C 7.7366 25.3881 2.6581 20.3093 2.6581 14.0445 C 2.6581 7.7797 7.7366 2.701 14.0015 2.701 C 20.2664 2.701 25.3451 7.7797 25.3451 14.0445 C 25.3451 20.3093 20.2664 25.3881 14.0015 25.3881 Z" fill="#afdfff"/>		</g>	</g></svg>