<?xml version="1.0" standalone="no"?><!-- Generator: Adobe Fireworks CS6, Export SVG Extension by Aaron Beall (http://fireworks.abeall.com) . Version: 0.6.1  --><!DOCTYPE svg PUBLIC "-//W3C//DTD SVG 1.1//EN" "http://www.w3.org/Graphics/SVG/1.1/DTD/svg11.dtd"><svg id="Untitled-Page%201" viewBox="0 0 60 60" style="background-color:#ffffff00" version="1.1"	xmlns="http://www.w3.org/2000/svg" xmlns:xlink="http://www.w3.org/1999/xlink" xml:space="preserve"	x="0px" y="0px" width="60px" height="60px">	<defs>		<linearGradient id="gradient1" x1="60.5636%" y1="113.892%" x2="60.5636%" y2="54.4149%">			<stop stop-color="#808e1c" stop-opacity="1" offset="0%"/>			<stop stop-color="#b1c44b" stop-opacity="1" offset="100%"/>		</linearGradient>	</defs>	<g id="Layer%201">		<path id="Ellipse" d="M 0 30 C 0 13.4314 13.4312 0 30 0 C 46.5691 0 60 13.4314 60 30 C 60 46.5684 46.5691 60 30 60 C 13.4312 60 0 46.5684 0 30 Z" fill="url(#gradient1)"/>		<path d="M 17.6125 24.3462 L 39.925 24.3462 L 39.925 22.0847 L 17.6125 22.0847 L 17.6125 24.3462 ZM 29.8843 37.9153 L 37.6937 37.9153 L 37.6937 35.6538 L 29.8843 35.6538 L 29.8843 37.9153 ZM 29.8843 33.3923 L 39.925 33.3923 L 39.925 31.1309 L 29.8843 31.1309 L 29.8843 33.3923 ZM 29.8843 28.8691 L 39.925 28.8691 L 39.925 26.6077 L 29.8843 26.6077 L 29.8843 28.8691 ZM 17.6125 37.9153 L 27.6531 37.9153 L 27.6531 26.6077 L 17.6125 26.6077 L 17.6125 37.9153 ZM 44.3875 19.823 L 44.3875 15.3 L 13.15 15.3 L 13.15 40.177 C 13.15 40.177 13.15 44.7 17.6125 44.7 L 45.5032 44.7 C 45.5032 44.7 48.85 44.6294 48.85 40.177 L 48.85 19.823 L 44.3875 19.823 ZM 17.6125 42.4385 C 15.3812 42.4385 15.3812 40.177 15.3812 40.177 L 15.3812 17.5615 L 42.1563 17.5615 L 42.1563 40.177 C 42.1563 41.2183 42.4733 41.9395 42.9102 42.4385 L 17.6125 42.4385 Z" fill="#ffffff"/>	</g></svg>