<?xml version="1.0" encoding="UTF-8" standalone="no"?>
<svg width="20px" height="20px" viewBox="0 0 20 20" version="1.1" xmlns="http://www.w3.org/2000/svg" xmlns:xlink="http://www.w3.org/1999/xlink" xmlns:sketch="http://www.bohemiancoding.com/sketch/ns">
    <title>icon-youtube-sm</title>
    <description>Created with Sketch (http://www.bohemiancoding.com/sketch)</description>
    <defs>
        <linearGradient x1="50%" y1="3.1878125%" x2="50%" y2="97.0209375%" id="linearGradient-1">
            <stop stop-color="#EE533B" offset="0%"></stop>
            <stop stop-color="#D53928" offset="100%"></stop>
        </linearGradient>
        <linearGradient x1="50%" y1="3.1878125%" x2="50%" y2="97.0209375%" id="linearGradient-2">
            <stop stop-color="#D46043" offset="0%"></stop>
            <stop stop-color="#D53928" offset="100%"></stop>
        </linearGradient>
    </defs>
    <g id="Page-1" stroke="none" stroke-width="1" fill="none" fill-rule="evenodd" sketch:type="MSPage">
        <g id="icon-youtube-sm" sketch:type="MSArtboardGroup">
            <g id="Group-+-Group-+-Group" sketch:type="MSLayerGroup">
                <g id="Group" sketch:type="MSShapeGroup">
                    <path d="M0.15625,9.880625 C0.15625,4.355625 4.63125,-0.119375 10.15625,-0.119375 C15.68125,-0.119375 20.15625,4.355625 20.15625,9.880625 C20.15625,15.405625 15.68125,19.880625 10.15625,19.880625 C4.63125,19.880625 0.15625,15.405625 0.15625,9.880625 L0.15625,9.880625 Z" id="Shape" fill="url(#linearGradient-1)"></path>
                    <path d="M0.15625,9.880625 C0.15625,4.355625 4.63125,-0.119375 10.15625,-0.119375 C15.68125,-0.119375 20.15625,4.355625 20.15625,9.880625 C20.15625,15.405625 15.68125,19.880625 10.15625,19.880625 C4.63125,19.880625 0.15625,15.405625 0.15625,9.880625 L0.15625,9.880625 Z" id="Shape" fill="url(#linearGradient-2)"></path>
                    <path d="M15.3625,14.336875 L15.3625,14.230625 L14.594375,14.230625 C14.594375,14.530625 14.5875,14.699375 14.58125,14.736875 C14.5375,14.936875 14.43125,15.036875 14.24375,15.036875 C13.9875,15.036875 13.8625,14.849375 13.8625,14.461875 L13.8625,13.730625 L15.3625,13.730625 L15.3625,12.874375 C15.3625,12.430625 15.2875,12.111875 15.13125,11.899375 C14.91875,11.618125 14.61875,11.474375 14.24375,11.474375 C13.8625,11.474375 13.5625,11.618125 13.349375,11.899375 C13.186875,12.111875 13.11875,12.430625 13.11875,12.874375 L13.11875,14.324375 C13.11875,14.761875 13.2,15.086875 13.35625,15.293125 C13.575,15.574375 13.875,15.718125 14.261875,15.718125 C14.65625,15.718125 14.9625,15.568125 15.16875,15.268125 C15.26125,15.136875 15.3175,14.986875 15.3425,14.824375 C15.35,14.749375 15.3625,14.580625 15.3625,14.336875 L15.3625,14.336875 Z M14.6125,13.105625 L13.8625,13.105625 L13.8625,12.724375 C13.8625,12.343125 13.9875,12.149375 14.23875,12.149375 C14.4875,12.149375 14.61375,12.343125 14.61375,12.724375 L14.6125,13.105625 L14.6125,13.105625 Z M12.53125,14.418125 L12.53125,12.774375 C12.53125,12.380625 12.50625,12.111875 12.45625,11.943125 C12.3575,11.630625 12.156875,11.474375 11.85625,11.474375 C11.5825,11.474375 11.325,11.624375 11.088125,11.924375 L11.088125,10.111875 L10.338125,10.111875 L10.338125,15.661875 L11.088125,15.661875 L11.088125,15.261875 C11.336875,15.568125 11.594375,15.718125 11.85625,15.718125 C12.15625,15.718125 12.3575,15.561875 12.45625,15.255625 C12.50625,15.080625 12.53125,14.805625 12.53125,14.418125 L12.53125,14.418125 Z M11.786875,14.480625 C11.786875,14.855625 11.67375,15.036875 11.45625,15.036875 C11.3375,15.036875 11.2125,14.980625 11.0875,14.855625 L11.0875,12.330625 C11.2125,12.211875 11.33625,12.149375 11.45625,12.149375 C11.675,12.149375 11.786875,12.343125 11.786875,12.711875 L11.786875,14.480625 L11.786875,14.480625 Z M8.9375,15.661875 L8.9375,15.211875 C8.638125,15.549375 8.35625,15.718125 8.08125,15.718125 C7.8375,15.718125 7.67625,15.618125 7.6,15.411875 C7.55625,15.286875 7.53125,15.086875 7.53125,14.799375 L7.53125,11.524375 L8.28125,11.524375 L8.28125,14.568125 C8.28125,14.749375 8.28125,14.836875 8.2875,14.861875 C8.30625,14.980625 8.3625,15.036875 8.4625,15.036875 C8.6125,15.036875 8.76875,14.924375 8.9375,14.686875 L8.9375,11.524375 L9.6875,11.524375 L9.6875,15.661875 L8.9375,15.661875 L8.9375,15.661875 Z M7.425,10.893125 L7.425,10.111875 L4.8125,10.111875 L4.8125,10.893125 L5.693125,10.893125 L5.693125,15.661875 L6.525,15.661875 L6.525,10.893125 L7.425,10.893125 L7.425,10.893125 Z" id="Shape" fill="#CD332D"></path>
                </g>
                <g id="Group" transform="translate(3.750000, 3.750000)" fill="#000000" sketch:type="MSShapeGroup">
                    <g id="Shape">
                        <path d="M12.05625,10.555625 C12.05625,11.905625 11.605625,13.005625 10.28125,13.005625 L1.95,13.005625 C0.63125,13.005625 0.18125,11.905625 0.18125,10.555625 L0.18125,8.580625 C0.18125,7.230625 0.63125,6.130625 1.95,6.130625 L10.28125,6.130625 C11.605625,6.130625 12.05625,7.230625 12.05625,8.580625 L12.05625,10.555625 L12.05625,10.555625 Z"></path>
                        <g transform="translate(1.875000, 0.000000)">
                            <path d="M1.6125,1.905625 L1.5625,1.905625 L1.0125,-0.119375 L0.168125,-0.119375 L1.168125,2.943125 L1.168125,4.949375 L2.011875,4.949375 L2.011875,2.849375 L2.9875,-0.119375 L2.1375,-0.119375 L1.6125,1.905625 Z"></path>
                            <path d="M7.211875,1.211875 L7.211875,4.049375 C7.143125,4.130625 7.068125,4.199375 6.980625,4.249375 C6.899375,4.305625 6.824375,4.330625 6.774375,4.330625 C6.70625,4.330625 6.649375,4.311875 6.618125,4.268125 C6.593125,4.230625 6.575625,4.168125 6.575625,4.080625 L6.575625,1.211875 L5.825,1.211875 L5.825,4.336875 C5.825,4.561875 5.868125,4.724375 5.956875,4.836875 C6.044375,4.949375 6.175625,5.005625 6.350625,5.005625 C6.4875,5.005625 6.63125,4.961875 6.78125,4.886875 C6.930625,4.805625 7.074375,4.686875 7.211875,4.536875 L7.211875,4.949375 L7.961875,4.949375 L7.961875,1.211875 L7.211875,1.211875 L7.211875,1.211875 Z"></path>
                            <path d="M4.1625,1.118125 C3.825,1.118125 3.55625,1.199375 3.349375,1.374375 C3.15,1.543125 3.05,1.774375 3.05,2.068125 L3.05,4.005625 C3.05,4.324375 3.15,4.574375 3.344375,4.761875 C3.544375,4.949375 3.80625,5.049375 4.131875,5.049375 C4.469375,5.049375 4.738125,4.955625 4.93125,4.774375 C5.12625,4.586875 5.219375,4.343125 5.219375,4.018125 L5.219375,2.086875 C5.219375,1.805625 5.12,1.568125 4.925,1.386875 C4.724375,1.205625 4.475,1.118125 4.1625,1.118125 L4.1625,1.118125 Z M4.456875,4.074375 C4.456875,4.174375 4.431875,4.255625 4.369375,4.311875 C4.3125,4.368125 4.231875,4.399375 4.125,4.399375 C4.03125,4.399375 3.949375,4.374375 3.9,4.311875 C3.85,4.255625 3.818125,4.180625 3.818125,4.074375 L3.818125,2.036875 C3.818125,1.955625 3.85,1.893125 3.90625,1.836875 C3.9625,1.786875 4.0375,1.761875 4.125625,1.761875 C4.225625,1.761875 4.30625,1.786875 4.37,1.836875 C4.4325,1.893125 4.4575,1.955625 4.4575,2.036875 L4.4575,4.074375 L4.456875,4.074375 Z"></path>
                        </g>
                    </g>
                </g>
                <g id="Group" transform="translate(3.750000, 3.125000)" sketch:type="MSShapeGroup">
                    <path d="M12.05625,10.555625 C12.05625,11.905625 11.605625,13.005625 10.28125,13.005625 L1.95,13.005625 C0.63125,13.005625 0.18125,11.905625 0.18125,10.555625 L0.18125,8.580625 C0.18125,7.230625 0.63125,6.130625 1.95,6.130625 L10.28125,6.130625 C11.605625,6.130625 12.05625,7.230625 12.05625,8.580625 L12.05625,10.555625 L12.05625,10.555625 Z" id="Shape" fill="#FFFFFF"></path>
                    <g transform="translate(1.250000, 6.875000)" id="Shape" fill="#D53928">
                        <path d="M6.36875,3.930625 C6.36875,4.036875 6.343125,4.118125 6.305,4.161875 C6.2675,4.211875 6.2125,4.236875 6.13,4.236875 C6.07375,4.236875 6.0175,4.224375 5.9675,4.199375 C5.9175,4.174375 5.86125,4.136875 5.81125,4.080625 L5.81125,1.961875 C5.855,1.918125 5.9,1.880625 5.95,1.861875 C5.9925,1.836875 6.0425,1.824375 6.0875,1.824375 C6.18,1.824375 6.25,1.855625 6.293125,1.911875 C6.343125,1.974375 6.36875,2.061875 6.36875,2.174375 L6.36875,3.930625 L6.36875,3.930625 Z M6.4,1.286875 C6.3,1.286875 6.2,1.311875 6.09375,1.368125 C5.99375,1.424375 5.9,1.499375 5.8125,1.605625 L5.8125,0.118125 L5.1375,0.118125 L5.1375,4.724375 L5.8125,4.724375 L5.8125,4.461875 C5.90125,4.568125 5.99375,4.643125 6.09375,4.693125 C6.2,4.743125 6.313125,4.768125 6.44375,4.768125 C6.63875,4.768125 6.788125,4.705 6.895,4.57375 C7.00125,4.44875 7.05125,4.26125 7.05125,4.02375 L7.05125,2.13625 C7.05125,1.86125 6.995,1.64875 6.881875,1.505 C6.775,1.361875 6.6125,1.286875 6.4,1.286875 L6.4,1.286875 Z"></path>
                        <path d="M0.15625,0.793125 L0.93125,0.793125 L0.93125,4.724375 L1.68125,4.724375 L1.68125,0.793125 L2.45625,0.793125 L2.45625,0.118125 L0.15625,0.118125 L0.15625,0.793125 Z"></path>
                        <path d="M3.974375,3.905625 C3.91125,3.980625 3.843125,4.043125 3.76875,4.093125 C3.69375,4.136875 3.63,4.161875 3.5875,4.161875 C3.52375,4.161875 3.480625,4.143125 3.45,4.105625 C3.424375,4.074375 3.40625,4.011875 3.40625,3.936875 L3.40625,1.330625 L2.743125,1.330625 L2.743125,4.168125 C2.743125,4.374375 2.781875,4.518125 2.861875,4.624375 C2.936875,4.724375 3.055625,4.774375 3.205625,4.774375 C3.330625,4.774375 3.461875,4.743125 3.593125,4.668125 C3.724375,4.593125 3.855625,4.486875 3.97375,4.349375 L3.97375,4.724375 L4.641875,4.724375 L4.641875,1.330625 L3.97375,1.330625 L3.97375,3.905625 L3.974375,3.905625 Z"></path>
                        <path d="M8.66875,2.580625 L8.08125,2.580625 L8.08125,2.236875 C8.08125,2.093125 8.10625,1.993125 8.15,1.930625 C8.2,1.868125 8.275,1.836875 8.38125,1.836875 C8.480625,1.836875 8.55625,1.868125 8.6,1.930625 C8.64375,1.993125 8.66875,2.093125 8.66875,2.236875 L8.66875,2.580625 L8.66875,2.580625 L8.66875,2.580625 Z M8.40625,1.243125 C8.111875,1.243125 7.86875,1.336875 7.68125,1.524375 C7.49375,1.705625 7.4,1.949375 7.4,2.243125 L7.4,3.766875 C7.4,4.0925 7.488125,4.348125 7.65625,4.535625 C7.825625,4.723125 8.061875,4.816875 8.35625,4.816875 C8.686875,4.816875 8.9375,4.729375 9.09875,4.554375 C9.268125,4.379375 9.355,4.116875 9.355,3.766875 L9.355,3.591875 L8.6675,3.591875 L8.6675,3.748125 C8.6675,3.948125 8.6425,4.073125 8.604375,4.135625 C8.56125,4.191875 8.479375,4.223125 8.373125,4.223125 C8.26625,4.223125 8.191875,4.185625 8.14875,4.116875 C8.105,4.048125 8.08,3.9225 8.08,3.748125 L8.08,3.104375 L9.355,3.104375 L9.355,2.241875 C9.355,1.91625 9.2675,1.673125 9.105625,1.498125 C8.94375,1.330625 8.7125,1.243125 8.40625,1.243125 L8.40625,1.243125 Z"></path>
                    </g>
                    <g transform="translate(1.875000, 0.000000)" id="Shape" fill="#FFFFFF">
                        <path d="M1.6125,1.905625 L1.5625,1.905625 L1.0125,-0.119375 L0.168125,-0.119375 L1.168125,2.943125 L1.168125,4.949375 L2.011875,4.949375 L2.011875,2.849375 L2.9875,-0.119375 L2.1375,-0.119375 L1.6125,1.905625 Z"></path>
                        <path d="M4.1625,1.118125 C3.825,1.118125 3.55625,1.199375 3.349375,1.374375 C3.15,1.543125 3.05,1.774375 3.05,2.068125 L3.05,4.005625 C3.05,4.324375 3.15,4.574375 3.344375,4.761875 C3.544375,4.949375 3.80625,5.049375 4.131875,5.049375 C4.469375,5.049375 4.738125,4.955625 4.93125,4.774375 C5.12625,4.586875 5.219375,4.343125 5.219375,4.018125 L5.219375,2.086875 C5.219375,1.805625 5.12,1.568125 4.925,1.386875 C4.724375,1.205625 4.475,1.118125 4.1625,1.118125 L4.1625,1.118125 Z M4.456875,4.074375 C4.456875,4.174375 4.431875,4.255625 4.369375,4.311875 C4.3125,4.368125 4.231875,4.399375 4.125,4.399375 C4.03125,4.399375 3.949375,4.374375 3.9,4.311875 C3.85,4.255625 3.818125,4.180625 3.818125,4.074375 L3.818125,2.036875 C3.818125,1.955625 3.85,1.893125 3.90625,1.836875 C3.9625,1.786875 4.0375,1.761875 4.125625,1.761875 C4.225625,1.761875 4.30625,1.786875 4.37,1.836875 C4.4325,1.893125 4.4575,1.955625 4.4575,2.036875 L4.4575,4.074375 L4.456875,4.074375 Z"></path>
                        <path d="M7.211875,1.211875 L7.211875,4.049375 C7.143125,4.130625 7.068125,4.199375 6.980625,4.249375 C6.899375,4.305625 6.824375,4.330625 6.774375,4.330625 C6.70625,4.330625 6.649375,4.311875 6.618125,4.268125 C6.593125,4.230625 6.575625,4.168125 6.575625,4.080625 L6.575625,1.211875 L5.825,1.211875 L5.825,4.336875 C5.825,4.561875 5.868125,4.724375 5.956875,4.836875 C6.044375,4.949375 6.175625,5.005625 6.350625,5.005625 C6.4875,5.005625 6.63125,4.961875 6.78125,4.886875 C6.930625,4.805625 7.074375,4.686875 7.211875,4.536875 L7.211875,4.949375 L7.961875,4.949375 L7.961875,1.211875 L7.211875,1.211875 L7.211875,1.211875 Z"></path>
                    </g>
                </g>
            </g>
        </g>
    </g>
</svg>