<?xml version="1.0" encoding="utf-8"?>
<!-- Generator: Adobe Illustrator 17.1.0, SVG Export Plug-In . SVG Version: 6.00 Build 0)  -->
<!DOCTYPE svg PUBLIC "-//W3C//DTD SVG 1.1//EN" "http://www.w3.org/Graphics/SVG/1.1/DTD/svg11.dtd">
<svg version="1.1" id="Layer_1" xmlns="http://www.w3.org/2000/svg" xmlns:xlink="http://www.w3.org/1999/xlink" x="0px" y="0px"
	 width="40.8px" height="32px" viewBox="0 0 40.8 32" enable-background="new 0 0 40.8 32" xml:space="preserve">
<linearGradient id="SVGID_1_" gradientUnits="userSpaceOnUse" x1="20.4" y1="32" x2="20.4" y2="-9.158612e-10">
	<stop  offset="0" style="stop-color:#1A2E93"/>
	<stop  offset="1" style="stop-color:#22BFD5"/>
</linearGradient>
<rect x="0" fill-rule="evenodd" clip-rule="evenodd" fill="url(#SVGID_1_)" width="40.8" height="32"/>
<g>
	<path fill="#FFFFFF" d="M28.6,15H13.2c-0.8,0-1.4,0.7-1.4,1.5s0.7,1.5,1.4,1.5h15.3c0.8,0,1.5-0.7,1.5-1.5S29.4,15,28.6,15z"/>
	<path fill="#FFFFFF" d="M28.6,8.8H13.2c-0.8,0-1.4,0.7-1.4,1.5c0,0.9,0.7,1.5,1.4,1.5h15.3c0.8,0,1.5-0.7,1.5-1.5
		C30,9.5,29.4,8.8,28.6,8.8z"/>
	<path fill="#FFFFFF" d="M28.6,21.1H13.2c-0.8,0-1.4,0.7-1.4,1.5c0,0.9,0.7,1.5,1.4,1.5h15.3c0.8,0,1.5-0.7,1.5-1.5
		C30,21.8,29.4,21.1,28.6,21.1z"/>
</g>
</svg>
