<?xml version="1.0" standalone="no"?><!-- Generator: Adobe Fireworks CS6, Export SVG Extension by Aaron Beall (http://fireworks.abeall.com) . Version: 0.6.1  --><!DOCTYPE svg PUBLIC "-//W3C//DTD SVG 1.1//EN" "http://www.w3.org/Graphics/SVG/1.1/DTD/svg11.dtd"><svg id="Untitled-Page%201" viewBox="0 0 54 55" style="background-color:#ffffff00" version="1.1"	xmlns="http://www.w3.org/2000/svg" xmlns:xlink="http://www.w3.org/1999/xlink" xml:space="preserve"	x="0px" y="0px" width="54px" height="55px">	<g id="Layer%201">		<path d="M 0 7.7126 L 54 7.7126 L 54 55.3907 L 0 55.3907 L 0 7.7126 Z" stroke="#cacaca" stroke-width="2" fill="#ffffff"/>		<path d="M 0 4.2069 L 54 4.2069 L 54 16.1265 L 0 16.1265 L 0 4.2069 Z" fill="#cacaca"/>		<path d="M 12.465 0 L 13.1504 0 C 14.6817 0 15.9231 1.2572 15.9231 2.8081 L 15.9231 9.8126 C 15.9231 11.3635 14.6817 12.6207 13.1504 12.6207 L 12.465 12.6207 C 10.9337 12.6207 9.6923 11.3635 9.6923 9.8126 L 9.6923 2.8081 C 9.6923 1.2572 10.9337 0 12.465 0 Z" stroke="#cacaca" stroke-width="1" fill="#ffffff"/>		<path d="M 40.1573 0 L 40.8427 0 C 42.374 0 43.6154 1.2572 43.6154 2.8081 L 43.6154 9.8126 C 43.6154 11.3635 42.374 12.6207 40.8427 12.6207 L 40.1573 12.6207 C 38.626 12.6207 37.3846 11.3635 37.3846 9.8126 L 37.3846 2.8081 C 37.3846 1.2572 38.626 0 40.1573 0 Z" stroke="#cacaca" stroke-width="1" fill="#ffffff"/>	</g></svg>