<?xml version="1.0" standalone="no"?><!-- Generator: Adobe Fireworks CS6, Export SVG Extension by Aaron Beall (http://fireworks.abeall.com) . Version: 0.6.1  --><!DOCTYPE svg PUBLIC "-//W3C//DTD SVG 1.1//EN" "http://www.w3.org/Graphics/SVG/1.1/DTD/svg11.dtd"><svg id="Untitled-Page%201" viewBox="0 0 60 60" style="background-color:#ffffff00" version="1.1"	xmlns="http://www.w3.org/2000/svg" xmlns:xlink="http://www.w3.org/1999/xlink" xml:space="preserve"	x="0px" y="0px" width="60px" height="60px">	<defs>		<linearGradient id="gradient1" x1="60.5636%" y1="113.0586%" x2="60.5636%" y2="53.5817%">			<stop stop-color="#11407b" stop-opacity="1" offset="0%"/>			<stop stop-color="#4f7fc8" stop-opacity="1" offset="100%"/>		</linearGradient>	</defs>	<g id="Layer%201">		<path id="Ellipse" d="M 1 30 C 1 13.4313 14.2073 0 30.5 0 C 46.7929 0 60 13.4313 60 30 C 60 46.5685 46.7929 60 30.5 60 C 14.2073 60 1 46.5685 1 30 Z" fill="url(#gradient1)"/>		<path d="M 30.5 19.7529 C 29.8362 17.1477 26.4643 15.6 23.8624 15.6 C 18.7314 15.6 14.57 19.6188 14.57 24.9774 C 14.57 35.0244 24.035 37.7038 29.1725 43.7318 C 29.2184 43.7986 29.2723 43.853 29.3319 43.9124 C 29.9819 44.5626 31.0309 44.5626 31.681 43.9124 C 31.7413 43.8529 31.7809 43.7986 31.8275 43.7318 C 36.9716 37.6906 46.43 35.0649 46.43 24.9774 C 46.43 19.6188 42.2686 15.6 37.1374 15.6 C 34.5356 15.6 31.1638 17.1477 30.5 19.7529 ZM 37.5693 21.6282 C 36.945 21.5145 36.4739 20.9651 36.4739 20.309 C 36.4739 19.5724 37.0716 18.949 37.8012 18.949 C 38.8567 18.949 40.1373 19.7059 41.213 20.7781 C 42.3083 21.8763 43.1112 23.3434 43.1112 24.3076 C 43.1112 25.0441 42.5137 25.6472 41.7837 25.6472 C 41.133 25.6472 40.5892 25.1717 40.4756 24.5416 C 40.1437 23.1956 39.0029 21.9632 37.5693 21.6282 Z" fill="#ffffff"/>	</g></svg>