<?xml version="1.0" encoding="utf-8"?>
<!-- Generator: Adobe Illustrator 17.1.0, SVG Export Plug-In . SVG Version: 6.00 Build 0)  -->
<!DOCTYPE svg PUBLIC "-//W3C//DTD SVG 1.1//EN" "http://www.w3.org/Graphics/SVG/1.1/DTD/svg11.dtd">
<svg version="1.1" id="Layer_1" xmlns="http://www.w3.org/2000/svg" xmlns:xlink="http://www.w3.org/1999/xlink" x="0px" y="0px"
	 width="28.1px" height="29.5px" viewBox="0 0 28.1 29.5" enable-background="new 0 0 28.1 29.5" xml:space="preserve">
<path fill-rule="evenodd" clip-rule="evenodd" fill="#FFFFFF" d="M25.8,27.3H2.3V13.7h23.5V27.3z M6.7,3.8c0-0.8,0.7-1.5,1.5-1.5
	c0.9,0,1.6,0.7,1.6,1.5v5.1c0,0.8-0.7,1.5-1.6,1.5c-0.9,0-1.5-0.7-1.5-1.5V3.8z M18.3,3.8c0-0.8,0.7-1.5,1.5-1.5s1.5,0.7,1.5,1.5
	v5.1c0,0.8-0.7,1.5-1.5,1.5s-1.5-0.7-1.5-1.5V3.8z M26.9,6h-3.2V3.8C23.7,1.7,22,0,19.9,0C17.7,0,16,1.7,16,3.8V6h-3.9V3.8
	c0-2.1-1.7-3.8-3.9-3.8C6.1,0,4.4,1.7,4.4,3.8V6H1.2C0.5,6,0,6.5,0,7.1v21.3c0,0.6,0.5,1.1,1.2,1.1h25.8c0.6,0,1.2-0.5,1.2-1.1V7.1
	C28.1,6.5,27.6,6,26.9,6z"/>
<path fill="#FFFFFF" d="M11.7,22.7h1.8v-3.5c0-0.3,0-0.6,0-0.6h0c0,0-0.1,0.2-0.3,0.4l-0.5,0.5l-1.2-1.3l2.3-2.1h1.8v6.7h1.9v1.8
	h-5.8V22.7z"/>
</svg>
