<?xml version="1.0" standalone="no"?><!-- Generator: Adobe Fireworks CS6, Export SVG Extension by Aaron Beall (http://fireworks.abeall.com) . Version: 0.6.1  --><!DOCTYPE svg PUBLIC "-//W3C//DTD SVG 1.1//EN" "http://www.w3.org/Graphics/SVG/1.1/DTD/svg11.dtd"><svg id="Untitled-Page%201" viewBox="0 0 6 10" style="background-color:#ffffff00" version="1.1"	xmlns="http://www.w3.org/2000/svg" xmlns:xlink="http://www.w3.org/1999/xlink" xml:space="preserve"	x="0px" y="0px" width="6px" height="10px">	<g id="Layer%201">		<path d="M 5.6606 3.6074 L 5.493 3.4648 L 5.4717 3.4456 C 5.434 3.4114 5.3936 3.3779 5.3525 3.345 L 1.4197 -0.0068 C 1.1157 -0.3003 0.6315 -0.2915 0.3379 0.0122 L 0.233 0.1206 C -0.0607 0.4248 -0.052 0.9092 0.2518 1.2026 L 3 4.5015 L 0.5526 7.9324 C 0.2698 8.2463 0.2952 8.73 0.6094 9.0129 L 0.7214 9.1138 C 1.0354 9.3967 1.5192 9.3711 1.8019 9.0574 L 5.4946 5.3018 C 5.5103 5.2881 5.5269 5.2754 5.5408 5.2607 L 5.6865 5.1099 C 6.0942 4.6877 6.0825 4.0149 5.6606 3.6074 Z" fill="#00ffff"/>	</g></svg>