<?xml version="1.0" encoding="utf-8"?>
<!-- Generator: Adobe Illustrator 18.1.0, SVG Export Plug-In . SVG Version: 6.00 Build 0)  -->
<!DOCTYPE svg PUBLIC "-//W3C//DTD SVG 1.1//EN" "http://www.w3.org/Graphics/SVG/1.1/DTD/svg11.dtd">
<svg version="1.1" id="Layer_1" xmlns:sketch="http://www.bohemiancoding.com/sketch/ns"
	 xmlns="http://www.w3.org/2000/svg" xmlns:xlink="http://www.w3.org/1999/xlink" x="0px" y="0px" width="17px" height="18px" viewBox="-297 388 17 18"
	 enable-background="new -297 388 17 18" xml:space="preserve">
<title>icon-search-gray</title>
<description>Created with Sketch (http://www.bohemiancoding.com/sketch)</description>
<g id="Page-1" sketch:type="MSPage">
	<g id="icon-search-gray" sketch:type="MSArtboardGroup">
		<g id="CNAT-svg-graphics_3-copy" transform="translate(-543.000000, -500.000000)" sketch:type="MSLayerGroup">
			<g id="Layer_2" transform="translate(194.000000, 312.000000)" sketch:type="MSShapeGroup">
				<path id="Shape" fill="#FFFFFF" d="M61.5,588.3c-0.8,0.4-2,0.6-3.1,0.6c-3.6,0-6.3-2.8-6.3-6.4c0-3.6,2.7-6.5,6.3-6.6
					c3.6-0.1,6.6,2.7,6.6,6.3c0,1.5-0.5,3.2-1.3,4.2l5.2,4.8c0.3,0.3,0.3,0.8,0,1.1l-1.1,1.1c-0.3,0.3-0.8,0.3-1.1,0L61.5,588.3
					L61.5,588.3z M58.5,578.6c-2.1,0.1-3.8,1.8-3.8,3.9c0,2.1,1.7,3.8,3.8,3.8c2.2,0,3.9-1.8,3.9-3.9
					C62.4,580.2,60.6,578.5,58.5,578.6L58.5,578.6z"/>
			</g>
		</g>
	</g>
</g>
</svg>
