<?xml version="1.0" encoding="utf-8"?>
<!-- Generator: Adobe Illustrator 17.1.0, SVG Export Plug-In . SVG Version: 6.00 Build 0)  -->
<!DOCTYPE svg PUBLIC "-//W3C//DTD SVG 1.1//EN" "http://www.w3.org/Graphics/SVG/1.1/DTD/svg11.dtd">
<svg version="1.1" id="Layer_1" xmlns:sketch="http://www.bohemiancoding.com/sketch/ns"
	 xmlns="http://www.w3.org/2000/svg" xmlns:xlink="http://www.w3.org/1999/xlink" x="0px" y="0px" width="21px" height="21px"
	 viewBox="0 0 21 21" enable-background="new 0 0 21 21" xml:space="preserve">
<title>icon-stethoscope</title>
<description>Created with Sketch (http://www.bohemiancoding.com/sketch)</description>
<g id="Page-1" sketch:type="MSPage">
	<g id="icon-stethoscope" sketch:type="MSArtboardGroup">
		<path id="Shape" sketch:type="MSShapeGroup" fill="#FFFFFF" d="M5.9,13.2v1.4c0,3.1,2.5,6.2,6.3,6.2c3.6,0,6-2.8,6.3-5.7
			c1.3-0.4,2.2-1.6,2.2-3c0-1.8-1.5-3.2-3.3-3.2s-3.3,1.4-3.3,3.2c0,1.4,1,2.6,2.3,3c-0.3,1.9-1.9,3.7-4.3,3.7
			c-2.6,0-4.3-2.1-4.3-4.2l0-1l0-0.4c2.3-0.3,4.2-1.7,4.8-4l0.9-3.1c0.1-0.5,0.2-0.9,0.2-1.3c0-1.8-1.1-3.3-2.6-3.9
			c-0.3-0.6-0.8-1-1.5-1C8.8,0,8.1,0.7,8.1,1.6c0,0.9,0.7,1.6,1.6,1.6c0.4,0,0.7-0.1,1-0.3c0.7,0.3,1.1,1,1.1,2c0,0.2,0,0.5-0.1,0.8
			l-0.9,3c-0.5,1.7-1.9,2.6-3.9,2.6c-2,0-3.5-1-3.9-2.6l-0.9-3C2,5.4,2,5.2,2,5c0-0.9,0.5-1.6,1.1-2C3.4,3.1,3.7,3.2,4,3.2
			c0.9,0,1.7-0.7,1.7-1.6C5.7,0.7,4.9,0,4,0C3.3,0,2.7,0.4,2.5,1C1,1.7,0,3.2,0,5c0,0.4,0.1,0.8,0.2,1.2l0.9,3.1
			C1.7,11.4,3.6,12.8,5.9,13.2L5.9,13.2z M17.4,14.2c-1.2,0-2.2-1-2.2-2.2c0-1.2,1-2.2,2.2-2.2c1.2,0,2.2,1,2.2,2.2
			C19.6,13.2,18.6,14.2,17.4,14.2L17.4,14.2z"/>
	</g>
</g>
</svg>
