<?xml version="1.0" encoding="utf-8"?>
<!-- Generator: Adobe Illustrator 17.1.0, SVG Export Plug-In . SVG Version: 6.00 Build 0)  -->
<!DOCTYPE svg PUBLIC "-//W3C//DTD SVG 1.1//EN" "http://www.w3.org/Graphics/SVG/1.1/DTD/svg11.dtd">
<svg version="1.1" id="Layer_1" xmlns="http://www.w3.org/2000/svg" xmlns:xlink="http://www.w3.org/1999/xlink" x="0px" y="0px"
	 width="81px" height="81.5px" viewBox="0 0 81 81.5" enable-background="new 0 0 81 81.5" xml:space="preserve">
<rect x="1.5" y="12" fill-rule="evenodd" clip-rule="evenodd" fill="none" stroke="#CACACA" stroke-width="2.9996" stroke-linecap="square" stroke-miterlimit="10" width="78" height="68"/>
<rect y="7" fill-rule="evenodd" clip-rule="evenodd" fill="#CACACA" width="81" height="17"/>
<path fill-rule="evenodd" clip-rule="evenodd" fill="#FFFFFF" stroke="#CACACA" stroke-width="1.9998" stroke-linecap="round" stroke-linejoin="round" stroke-miterlimit="10" d="
	M19.5,1h1c2.2,0,4,1.8,4,4v10c0,2.2-1.8,4-4,4h-1c-2.2,0-4-1.8-4-4V5C15.5,2.8,17.3,1,19.5,1z"/>
<path fill-rule="evenodd" clip-rule="evenodd" fill="#FFFFFF" stroke="#CACACA" stroke-width="1.9998" stroke-linecap="round" stroke-linejoin="round" stroke-miterlimit="10" d="
	M59.5,1h1c2.2,0,4,1.8,4,4v10c0,2.2-1.8,4-4,4h-1c-2.2,0-4-1.8-4-4V5C55.5,2.8,57.3,1,59.5,1z"/>
<rect x="1.5" y="12" fill-rule="evenodd" clip-rule="evenodd" fill="none" stroke="#CACACA" stroke-width="2.9996" stroke-linecap="square" stroke-linejoin="round" stroke-miterlimit="10" width="78" height="68"/>
<path fill-rule="evenodd" clip-rule="evenodd" fill="#FFFFFF" stroke="#CACACA" stroke-width="0.9999" stroke-linecap="round" stroke-linejoin="round" stroke-miterlimit="10" d="
	M19.5,1h1c2.2,0,4,1.8,4,4v10c0,2.2-1.8,4-4,4h-1c-2.2,0-4-1.8-4-4V5C15.5,2.8,17.3,1,19.5,1z"/>
<path fill-rule="evenodd" clip-rule="evenodd" fill="#FFFFFF" stroke="#CACACA" stroke-width="0.9999" stroke-linecap="round" stroke-linejoin="round" stroke-miterlimit="10" d="
	M59.5,1h1c2.2,0,4,1.8,4,4v10c0,2.2-1.8,4-4,4h-1c-2.2,0-4-1.8-4-4V5C55.5,2.8,57.3,1,59.5,1z"/>
</svg>
