<?xml version="1.0" encoding="utf-8"?>
<!-- Generator: Adobe Illustrator 17.1.0, SVG Export Plug-In . SVG Version: 6.00 Build 0)  -->
<!DOCTYPE svg PUBLIC "-//W3C//DTD SVG 1.1//EN" "http://www.w3.org/Graphics/SVG/1.1/DTD/svg11.dtd">
<svg version="1.1" id="Layer_1" xmlns="http://www.w3.org/2000/svg" xmlns:xlink="http://www.w3.org/1999/xlink" x="0px" y="0px"
	 width="40.8px" height="32px" viewBox="0 0 40.8 32" enable-background="new 0 0 40.8 32" xml:space="preserve">
<g>
	<rect x="0" fill-rule="evenodd" clip-rule="evenodd" fill="#E3E3E3" width="40.8" height="32"/>
	<path fill-rule="evenodd" clip-rule="evenodd" fill="#0054AB" d="M17.2,10c-1.9,0-3.5,1.6-3.5,3.5c0,1.9,1.6,3.5,3.5,3.5
		s3.5-1.6,3.5-3.5C20.7,11.6,19.2,10,17.2,10z M27.7,22.1l-2,1.9l-5.7-5.8c-0.8,0.5-1.8,0.9-2.9,0.9c-3,0-5.5-2.5-5.5-5.5
		S14.1,8,17.1,8c3,0,5.5,2.5,5.5,5.5c0,1-0.3,1.9-0.7,2.6L27.7,22.1z"/>
</g>
</svg>
