<?xml version="1.0" encoding="utf-8"?>
<!-- Generator: Adobe Illustrator 17.1.0, SVG Export Plug-In . SVG Version: 6.00 Build 0)  -->
<!DOCTYPE svg PUBLIC "-//W3C//DTD SVG 1.1//EN" "http://www.w3.org/Graphics/SVG/1.1/DTD/svg11.dtd">
<svg version="1.1" id="Layer_1" xmlns="http://www.w3.org/2000/svg" xmlns:xlink="http://www.w3.org/1999/xlink" x="0px" y="0px"
	 width="60px" height="60px" viewBox="0 0 60 60" enable-background="new 0 0 60 60" xml:space="preserve">
<linearGradient id="SVGID_1_" gradientUnits="userSpaceOnUse" x1="29.995" y1="9.094947e-13" x2="29.995" y2="59.99">
	<stop  offset="0" style="stop-color:#4C7DCB"/>
	<stop  offset="1" style="stop-color:#1D4F91"/>
</linearGradient>
<path fill-rule="evenodd" clip-rule="evenodd" fill="url(#SVGID_1_)" d="M0,30C0,13.4,13.4,0,30,0c16.6,0,30,13.4,30,30
	c0,16.6-13.4,30-30,30C13.4,60,0,46.6,0,30z"/>
<path fill-rule="evenodd" clip-rule="evenodd" fill="#FFFFFF" d="M22.2,18.7v21.8h15.5V18.7H20.3H22.2z M22.1,13.4
	c0,0-3.5,0-3.5,3.5v26.3c0,3.5,3.5,3.5,3.5,3.5h15.8c0,0,3.5,0,3.5-3.5V16.9c0-3.5-3.5-3.5-3.5-3.5H22.1z M30.4,41.5
	c-1.1,0-2,0.9-2,2c0,1.1,0.9,2,2,2s2-0.9,2-2C32.4,42.4,31.5,41.5,30.4,41.5z"/>
</svg>
