<?xml version="1.0" standalone="no"?><!-- Generator: Adobe Fireworks CS6, Export SVG Extension by Aaron Beall (http://fireworks.abeall.com) . Version: 0.6.1  --><!DOCTYPE svg PUBLIC "-//W3C//DTD SVG 1.1//EN" "http://www.w3.org/Graphics/SVG/1.1/DTD/svg11.dtd"><svg id="Untitled-Page%201" viewBox="0 0 60 60" style="background-color:#ffffff00" version="1.1"	xmlns="http://www.w3.org/2000/svg" xmlns:xlink="http://www.w3.org/1999/xlink" xml:space="preserve"	x="0px" y="0px" width="60px" height="60px">	<defs>		<linearGradient id="gradient1" x1="60.5636%" y1="113.892%" x2="60.5636%" y2="54.4149%">			<stop stop-color="#528a15" stop-opacity="1" offset="0%"/>			<stop stop-color="#7db726" stop-opacity="1" offset="100%"/>		</linearGradient>	</defs>	<g id="Layer%201">		<g>			<path id="Ellipse" d="M 0 30 C 0 13.4314 13.4312 0 30 0 C 46.5691 0 60 13.4314 60 30 C 60 46.5684 46.5691 60 30 60 C 13.4312 60 0 46.5684 0 30 Z" fill="url(#gradient1)"/>		</g>		<g>			<path d="M 18 18 L 42.0057 18 L 42.0057 21 L 18 21 L 18 18 Z" fill="#ffffff"/>			<path d="M 18 25 L 42.0057 25 L 42.0057 28 L 18 28 L 18 25 Z" fill="#ffffff"/>			<path d="M 18 32 L 42.0057 32 L 42.0057 35 L 18 35 L 18 32 Z" fill="#ffffff"/>			<path d="M 18 39 L 42.0057 39 L 42.0057 42 L 18 42 L 18 39 Z" fill="#ffffff"/>		</g>	</g></svg>