<?xml version="1.0" encoding="utf-8"?>
<!-- Generator: Adobe Illustrator 17.1.0, SVG Export Plug-In . SVG Version: 6.00 Build 0)  -->
<!DOCTYPE svg PUBLIC "-//W3C//DTD SVG 1.1//EN" "http://www.w3.org/Graphics/SVG/1.1/DTD/svg11.dtd">
<svg version="1.1" id="Layer_1" xmlns="http://www.w3.org/2000/svg" xmlns:xlink="http://www.w3.org/1999/xlink" x="0px" y="0px"
	 width="26.1px" height="26.1px" viewBox="0 0 26.1 26.1" enable-background="new 0 0 26.1 26.1" xml:space="preserve">
<path fill="#37A9F6" d="M15.7,12.1L15.5,12l0,0l-0.1-0.1l-3.9-3.4c-0.3-0.3-0.8-0.3-1.1,0l-0.1,0.1c-0.3,0.3-0.3,0.8,0,1.1l2.8,3.3
	l-2.4,3.4c-0.3,0.3-0.3,0.8,0.1,1.1l0.1,0.1c0.3,0.3,0.8,0.3,1.1-0.1l3.7-3.8l0.1,0l0.1-0.2C16.1,13.2,16.1,12.5,15.7,12.1z"/>
<path fill-rule="evenodd" clip-rule="evenodd" fill="#AFDFFF" d="M13.1,24.4c-6.3,0-11.3-5.1-11.3-11.3c0-6.3,5.1-11.4,11.3-11.4
	s11.3,5.1,11.3,11.4C24.4,19.3,19.3,24.4,13.1,24.4z M13.1,0C5.8,0,0,5.8,0,13.1c0,7.2,5.8,13,13.1,13s13.1-5.8,13.1-13
	C26.1,5.8,20.3,0,13.1,0z"/>
</svg>
