<?xml version="1.0" encoding="utf-8"?>
<!-- Generator: Adobe Illustrator 17.1.0, SVG Export Plug-In . SVG Version: 6.00 Build 0)  -->
<!DOCTYPE svg PUBLIC "-//W3C//DTD SVG 1.1//EN" "http://www.w3.org/Graphics/SVG/1.1/DTD/svg11.dtd">
<svg version="1.1" id="Layer_1" xmlns="http://www.w3.org/2000/svg" xmlns:xlink="http://www.w3.org/1999/xlink" x="0px" y="0px"
	 width="32px" height="32px" viewBox="0 0 32 32" enable-background="new 0 0 32 32" xml:space="preserve">
<g>
	<g>
		<circle fill-rule="evenodd" clip-rule="evenodd" fill="#FFFFFF" cx="15.5" cy="16.5" r="15.5"/>
		<path fill-rule="evenodd" clip-rule="evenodd" fill="#C2C2C2" d="M16,0C7.2,0,0,7.2,0,16s7.2,16,16,16s16-7.2,16-16S24.8,0,16,0z
			 M16,1.9c7.8,0,14.1,6.3,14.1,14.1S23.8,30.1,16,30.1S1.9,23.8,1.9,16S8.2,1.9,16,1.9z"/>
	</g>
	<g>
		<g>
			<path fill="#7D7D7D" d="M17.2,20.6l0.2-0.2l0,0l0.1-0.2l4.2-5.3c0.4-0.4,0.4-1.1,0-1.4l-0.1-0.1c-0.4-0.4-1-0.4-1.4,0L16,17
				l-4.3-3.3c-0.4-0.4-1-0.4-1.4,0.1l-0.1,0.1c-0.4,0.4-0.3,1.1,0.1,1.5l4.7,4.9l0.1,0.1l0.2,0.2C15.8,21.1,16.7,21.1,17.2,20.6z"/>
		</g>
	</g>
</g>
</svg>
