<?xml version="1.0" standalone="no"?><!-- Generator: Adobe Fireworks CS6, Export SVG Extension by Aaron Beall (http://fireworks.abeall.com) . Version: 0.6.1  --><!DOCTYPE svg PUBLIC "-//W3C//DTD SVG 1.1//EN" "http://www.w3.org/Graphics/SVG/1.1/DTD/svg11.dtd"><svg id="Untitled-Page%201" viewBox="0 0 26 26" style="background-color:#ffffff00" version="1.1"	xmlns="http://www.w3.org/2000/svg" xmlns:xlink="http://www.w3.org/1999/xlink" xml:space="preserve"	x="0px" y="0px" width="26px" height="26px">	<g id="Layer%201">		<path d="M 15.6606 12.1074 L 15.493 11.9648 L 15.4717 11.9456 C 15.434 11.9114 15.3936 11.8779 15.3525 11.845 L 11.4197 8.4932 C 11.1157 8.1997 10.6315 8.2085 10.3379 8.5122 L 10.233 8.6206 C 9.9393 8.9248 9.948 9.4092 10.2518 9.7026 L 13 13.0015 L 10.5526 16.4324 C 10.2698 16.7463 10.2952 17.23 10.6094 17.5129 L 10.7214 17.6138 C 11.0354 17.8967 11.5192 17.8711 11.8019 17.5574 L 15.4946 13.8018 C 15.5103 13.7881 15.5269 13.7754 15.5408 13.7607 L 15.6865 13.6099 C 16.0942 13.1877 16.0825 12.5149 15.6606 12.1074 Z" fill="#0099ff"/>		<path d="M 13.0015 -0.0054 C 5.7942 -0.0054 -0.0486 5.8372 -0.0486 13.0444 C -0.0486 20.252 5.7942 26.0945 13.0015 26.0945 C 20.209 26.0945 26.0515 20.252 26.0515 13.0444 C 26.0515 5.8372 20.209 -0.0054 13.0015 -0.0054 ZM 13.0015 24.3882 C 6.7366 24.3882 1.6581 19.3093 1.6581 13.0444 C 1.6581 6.7798 6.7366 1.7012 13.0015 1.7012 C 19.2664 1.7012 24.3451 6.7798 24.3451 13.0444 C 24.3451 19.3093 19.2664 24.3882 13.0015 24.3882 Z" fill="#0085bb"/>	</g></svg>