<?xml version="1.0" encoding="utf-8"?>
<!-- Generator: Adobe Illustrator 17.1.0, SVG Export Plug-In . SVG Version: 6.00 Build 0)  -->
<!DOCTYPE svg PUBLIC "-//W3C//DTD SVG 1.1//EN" "http://www.w3.org/Graphics/SVG/1.1/DTD/svg11.dtd">
<svg version="1.1" id="Layer_1" xmlns="http://www.w3.org/2000/svg" xmlns:xlink="http://www.w3.org/1999/xlink" x="0px" y="0px"
	 width="38.4px" height="30.4px" viewBox="0 0 38.4 30.4" enable-background="new 0 0 38.4 30.4" xml:space="preserve">
<path fill="#FFFFFF" d="M38.4,3.6c-1.4,0.6-2.9,1-4.5,1.2c1.6-1,2.9-2.5,3.5-4.2c-1.5,0.9-3.2,1.5-5,1.9C30.9,0.9,28.9,0,26.6,0
	c-4.4,0-7.9,3.4-7.9,7.7c0,0.6,0.1,1.2,0.2,1.8c-6.6-0.3-12.4-3.4-16.2-8C2,2.5,1.6,3.9,1.6,5.3c0,2.7,1.4,5,3.5,6.4
	c-1.3,0-2.5-0.4-3.6-1v0.1c0,3.7,2.7,6.8,6.3,7.5c-0.7,0.2-1.4,0.3-2.1,0.3c-0.5,0-1,0-1.5-0.1c1,3,3.9,5.3,7.4,5.3
	c-2.7,2.1-6.1,3.3-9.8,3.3c-0.6,0-1.3,0-1.9-0.1c3.5,2.2,7.6,3.4,12.1,3.4c14.5,0,22.4-11.7,22.4-21.8c0-0.3,0-0.7,0-1
	C36,6.5,37.3,5.1,38.4,3.6z"/>
</svg>
