<?xml version="1.0" encoding="utf-8"?>
<!-- Generator: Adobe Illustrator 18.1.0, SVG Export Plug-In . SVG Version: 6.00 Build 0)  -->
<!DOCTYPE svg PUBLIC "-//W3C//DTD SVG 1.1//EN" "http://www.w3.org/Graphics/SVG/1.1/DTD/svg11.dtd">
<svg version="1.1" id="Layer_1" xmlns="http://www.w3.org/2000/svg" xmlns:xlink="http://www.w3.org/1999/xlink" x="0px" y="0px"
	 viewBox="2.4 262.6 607.1 245.2" enable-background="new 2.4 262.6 607.1 245.2" xml:space="preserve">
<g>
	<path fill="#CE4232" d="M29,370.7l20.4,51.4h-5.3l-6.5-15.9H13.9l-6.1,15.9H2.4l20.8-51.4C23.3,370.7,29,370.7,29,370.7z
		 M35.9,402.1l-10.2-26.5l-10.2,26.5H35.9z"/>
	<path fill="#CE4232" d="M77.9,370.7c2.4,0,4.5,0.4,6.1,0.8c2,0.4,3.7,1.2,5.3,2c1.6,0.8,2.9,2.4,3.7,3.7c0.8,1.6,1.2,3.7,1.2,6.1
		c0,1.2-0.4,2.9-0.8,3.7c-0.4,1.2-1.2,2.4-1.6,3.3c-0.8,1.2-1.6,1.6-2.9,2.9c-1.2,0.8-2.4,1.2-3.7,1.6v0.4c3.3,0.4,6.1,1.6,8.2,4.1
		s2.9,4.9,2.9,8.6c0,0.8,0,1.6-0.4,2.9c-0.4,1.2-0.4,2-0.8,3.3s-1.2,2-1.6,3.3c-0.8,1.2-1.6,2-3.3,2.9c-1.2,0.8-2.9,1.2-4.9,2
		c-2,0.4-4.5,0.8-7.3,0.8h-22v-52.2H77.9z M77.9,393.6c2,0,3.7-0.4,4.9-0.8c1.2-0.4,2.9-1.2,3.7-1.6c0.8-0.4,1.6-1.6,2.4-2.9
		c0.4-1.2,0.8-2.4,0.8-3.3c0-6.5-3.7-9.4-11.4-9.4H61.6V394L77.9,393.6L77.9,393.6z M77.9,418.4c1.6,0,3.7-0.4,5.3-0.4
		c1.6,0,3.3-0.8,4.5-1.6c1.2-0.8,2.4-1.6,2.9-3.3c0.8-1.2,1.2-3.3,1.2-5.3c0-3.3-1.2-6.1-3.3-7.3c-2.4-1.6-5.7-2.4-10.2-2.4H61.6
		v20.4C61.6,418.4,77.9,418.4,77.9,418.4z"/>
	<path fill="#CE4232" d="M129.7,370.7c2,0,4.1,0.4,6.1,0.8c1.6,0.4,3.7,1.2,4.9,2.4s2.4,2.4,3.3,4.1c0.8,1.6,1.2,3.7,1.2,6.1
		c0,3.3-0.8,6.1-2.4,8.6c-1.6,2.4-4.1,3.7-7.3,4.5v0.4c1.6,0.4,3.3,0.8,4.1,1.2c1.2,0.8,2,1.2,2.9,2.4c0.8,0.8,1.2,2.4,1.6,3.3
		c0.4,1.2,0.4,2.9,0.8,4.5c0,0.8,0,1.6,0.4,3.3c0,1.2,0.4,2.4,0.4,3.7c0.4,1.2,0.4,2.4,0.8,3.7c0.4,1.2,0.8,2,1.2,2.9h-5.3
		c-0.4-0.4-0.4-1.2-0.8-1.6c-0.4-0.8-0.4-1.2-0.4-2.4c0-0.8-0.4-1.2-0.4-2.4c0-0.8,0-1.2-0.4-1.6c0-1.6-0.4-3.7-0.4-5.3
		c-0.4-1.6-0.8-3.3-1.2-4.9c-0.8-1.2-1.6-2.4-2.9-3.3c-1.2-0.8-3.3-1.2-5.3-1.2h-18.8v22.8h-4.9v-51.8H129.7z M129.3,395.6
		c1.6,0,2.9-0.4,4.5-0.8c1.2-0.4,2.4-1.2,3.7-2c0.8-0.8,1.6-1.6,2.4-3.3c0.8-1.2,0.8-2.9,0.8-4.5c0-3.3-0.8-5.7-2.9-7.3
		c-1.6-1.6-4.5-2.9-8.6-2.9H111v20.4L129.3,395.6L129.3,395.6z"/>
	<path fill="#CE4232" d="M177.5,370.7l20.4,51.4h-5.3l-6.5-15.9h-23.3l-6.1,15.9h-5.3l20.4-51.4
		C171.8,370.7,177.5,370.7,177.5,370.7z M184,402.1l-10.2-26.5l-10.2,26.5H184z"/>
	<path fill="#CE4232" d="M211.3,370.7l17.1,45.3l18-45.3h7.3v51.4h-4.9V378h-0.4l-17.5,44.5h-4.5L209.7,378h-0.4v44.5h-4.9v-51.8
		H211.3z"/>
	<path fill="#CE4232" d="M269.3,411.9c0.8,1.6,2,3.3,3.7,4.5c1.6,1.2,3.3,1.6,5.3,2.4c2,0.4,4.5,0.8,6.5,0.8c1.2,0,2.9-0.4,4.5-0.8
		c1.6-0.4,2.9-0.8,4.5-1.6c1.2-0.8,2.4-1.6,3.3-3.3c0.8-1.2,1.2-2.9,1.2-4.9c0-1.2-0.4-2.9-0.8-3.7c-0.8-1.2-1.6-2-2.4-2.9
		c-1.2-0.8-2.4-1.2-3.3-1.6c-1.2-0.4-2.4-0.8-3.7-1.2l-11.4-2.9c-1.6-0.4-2.9-0.8-4.5-1.2c-1.2-0.8-2.9-1.2-3.7-2.4
		c-1.2-0.8-1.6-2-2.4-3.7c-0.8-1.2-0.8-3.3-0.8-4.9c0-1.2,0.4-2.9,0.8-4.5s1.2-3.3,2.9-4.9c1.6-1.6,3.3-2.9,5.3-3.7
		c2.4-1.2,5.3-1.6,9-1.6c2.4,0,4.9,0.4,7.3,0.8c2.4,0.8,4.5,1.6,6.1,2.9c1.6,1.2,3.3,2.9,4.1,4.9c1.2,2,1.6,4.5,1.6,6.9h-4.9
		c0-2-0.4-3.7-1.2-5.3c-0.8-1.2-1.6-2.9-3.3-3.7c-1.2-0.8-2.9-1.6-4.5-2.4c-1.6-0.4-3.3-0.8-5.3-0.8c-1.6,0-3.3,0.4-4.9,0.4
		c-1.6,0.4-2.9,0.8-4.1,1.6c-1.2,0.8-2,1.6-2.9,3.3c-0.8,1.2-1.2,2.9-1.2,4.9c0,1.2,0.4,2.4,0.8,3.3c0.4,0.8,0.8,1.6,1.6,2.4
		c0.8,0.8,1.6,1.2,2.4,1.6c0.8,0.4,1.6,0.8,2.9,0.8l12.6,3.3c1.6,0.4,3.7,1.2,5.3,1.6c1.6,0.8,2.9,1.6,4.5,2.4
		c1.2,1.2,2.4,2.4,2.9,3.7c0.8,1.6,1.2,3.3,1.2,5.3c0,0.8,0,1.2-0.4,2.4c-0.4,0.8-0.4,2-0.8,2.9c-0.4,1.2-1.2,2.4-2,3.3
		c-0.8,1.2-2,2-3.3,2.9c-1.2,0.8-3.3,1.6-5.3,2.4c-2.4,0.4-4.9,0.8-7.8,0.8s-6.1-0.4-8.6-1.2s-4.9-1.6-6.5-3.3
		c-1.6-1.2-3.3-3.3-4.5-5.3c-0.8-2.4-1.2-4.9-1.2-8.2h4.9C268.1,408.2,268.5,410.3,269.3,411.9z"/>
	<path fill="#CE4232" d="M312.1,386.6c0.8-3.3,2.4-6.1,4.5-8.6c2-2.4,4.5-4.5,7.3-6.1c2.9-1.6,6.5-2.4,10.6-2.4
		c4.1,0,7.3,0.8,10.6,2.4c2.9,1.2,5.3,3.3,7.3,6.1c2,2.4,3.7,5.3,4.5,8.6c0.8,3.3,1.6,6.5,1.6,10.2s-0.4,6.9-1.6,10.2
		c-0.8,3.3-2.4,6.1-4.5,8.6s-4.5,4.5-7.3,6.1c-2.9,1.2-6.5,2.4-10.6,2.4c-4.1,0-7.3-0.8-10.6-2.4c-2.9-1.2-5.7-3.3-7.3-6.1
		c-1.6-2.4-3.7-5.3-4.5-8.6c-0.8-3.3-1.6-6.5-1.6-10.2S310.9,389.9,312.1,386.6z M316.6,405c0.8,2.9,1.6,5.3,3.3,7.3
		c1.6,2,3.7,3.7,6.1,5.3c2.4,1.2,5.3,2,9,2c3.3,0,6.5-0.8,8.6-2c2.4-1.2,4.5-2.9,6.1-5.3c1.6-2,2.9-4.5,3.3-7.3
		c0.8-2.9,1.2-5.3,1.2-8.2c0-2.9-0.4-5.7-1.2-8.2c-0.8-2.9-1.6-4.9-3.3-7.3c-1.6-2-3.7-3.7-6.1-5.3c-2.4-1.2-5.3-2-8.6-2
		s-6.5,0.8-9,2s-4.5,2.9-6.1,5.3c-1.6,2-2.9,4.5-3.3,7.3c-0.8,2.9-1.2,5.3-1.2,8.2C315.4,399.7,315.8,402.1,316.6,405z"/>
	<path fill="#CE4232" d="M374.5,370.7l30.2,43.7h0.4v-43.7h4.9v51.4h-5.7l-30.2-43.2h-0.4v43.7h-4.9v-51.8H374.5z"/>
</g>
<path fill="#CE4232" d="M40.8,465.4c-0.8-1.6-2.4-2.9-3.7-3.7c-1.2-1.2-2.9-1.6-4.9-2.4c-1.6-0.4-3.3-0.8-5.3-0.8
	c-3.3,0-6.5,0.8-9,2s-4.5,2.9-6.1,5.3c-1.6,2-2.9,4.5-3.3,7.3c-0.8,2.9-1.2,5.3-1.2,8.2c0,2.9,0.4,5.3,1.2,8.2
	c0.8,2.9,1.6,5.3,3.3,7.3c1.6,2,3.7,3.7,6.1,5.3c2.4,1.2,5.3,2,9,2c2.4,0,4.5-0.4,6.5-1.2c1.6-0.8,3.7-2,4.9-3.7
	c1.2-1.6,2.4-3.3,3.3-5.3c0.8-2,1.2-4.1,1.6-6.5h4.9c-0.4,3.3-1.2,6.1-2.4,8.6c-1.2,2.4-2.9,4.9-4.5,6.5c-1.6,1.6-3.7,3.3-6.5,4.1
	c-2.4,0.8-5.3,1.2-8.2,1.2c-4.1,0-7.3-0.8-10.6-2.4c-2.9-1.2-5.7-3.3-7.3-6.1c-2-2.4-3.7-5.3-4.5-8.6c-0.8-3.3-1.6-6.5-1.6-10.2
	c0-3.7,0.4-6.9,1.6-10.2c0.8-3.3,2.4-6.1,4.5-8.6s4.5-4.5,7.3-6.1c2.9-1.6,6.5-2.4,10.6-2.4c2.4,0,4.9,0.4,7.3,1.2
	c2.4,0.8,4.5,1.6,6.5,3.3c1.6,1.2,3.3,3.3,4.9,5.3c1.2,2,2,4.5,2.4,6.9h-4.5C42.8,469,42,467,40.8,465.4z"/>
<path fill="#CE4232" d="M79.2,455.2l20.4,51.4h-5.3l-6.5-15.9H64.1l-6.1,15.9h-5.3l20.8-51.4H79.2z M86.1,486.6l-10.2-26.5
	l-10.2,26.5H86.1z"/>
<path fill="#CE4232" d="M111.8,455.2l30.2,43.7h0.4v-43.7h4.9v51.4H142l-30.2-43.7h-0.4v43.7h-4.9v-51.4H111.8z"/>
<path fill="#CE4232" d="M194.6,465.4c-0.8-1.6-2.4-2.9-3.7-3.7c-1.2-1.2-2.9-1.6-4.9-2.4c-1.6-0.4-3.3-0.8-5.3-0.8
	c-3.3,0-6.5,0.8-9,2c-2.4,1.2-4.5,2.9-6.1,5.3c-1.6,2-2.9,4.5-3.3,7.3c-0.8,2.9-1.2,5.3-1.2,8.2c0,2.9,0.4,5.3,1.2,8.2
	c0.8,2.9,1.6,5.3,3.3,7.3c1.6,2,3.7,3.7,6.1,5.3c2.4,1.2,5.3,2,9,2c2.4,0,4.5-0.4,6.5-1.2c1.6-0.8,3.7-2,4.9-3.7
	c1.2-1.6,2.4-3.3,3.3-5.3c0.8-2,1.2-4.1,1.6-6.5h4.9c-0.4,3.3-1.2,6.1-2.4,8.6c-1.2,2.4-2.9,4.9-4.5,6.5c-1.6,1.6-3.7,3.3-6.5,4.1
	c-2.4,0.8-5.3,1.2-8.2,1.2c-4.1,0-7.3-0.8-10.6-2.4c-2.9-1.2-5.7-3.3-7.3-6.1c-2-2.4-3.7-5.3-4.5-8.6c-0.8-3.3-1.6-6.5-1.6-10.2
	s0.4-6.9,1.6-10.2c0.8-3.3,2.4-6.1,4.5-8.6c2-2.4,4.5-4.5,7.3-6.1c2.9-1.2,6.5-2.4,10.6-2.4c2.4,0,4.9,0.4,7.3,1.2
	c2.4,0.8,4.5,1.6,6.5,3.3c1.6,1.2,3.3,3.3,4.9,5.3c1.6,2,2,4.5,2.4,6.9h-4.9C196.2,469,195.8,467,194.6,465.4z"/>
<path fill="#CE4232" d="M247.7,455.2v4.1h-30.6V478h28.6v4.1h-28.6v20.4h31v4.1h-35.9v-51.4H247.7z"/>
<path fill="#CE4232" d="M280.7,455.2c2,0,4.1,0.4,6.1,0.8c1.6,0.4,3.7,1.2,4.9,2.4s2.4,2.4,3.3,4.1c0.8,1.6,1.2,3.7,1.2,6.1
	c0,3.3-0.8,6.1-2.4,8.6c-1.6,2.4-4.1,3.7-7.3,4.5v0.4c1.6,0.4,3.3,0.8,4.1,1.2c1.2,0.8,2,1.2,2.9,2.4c0.8,0.8,1.2,2.4,1.6,3.3
	c0.4,1.2,0.4,2.9,0.8,4.5c0,0.8,0,1.6,0.4,3.3c0,1.2,0.4,2.4,0.4,3.7c0.4,1.2,0.4,2.4,0.8,3.7s0.8,2,1.2,2.9h-5.3
	c-0.4-0.4-0.4-1.2-0.8-1.6c-0.4-0.8-0.4-1.2-0.4-2.4c0-0.8-0.4-1.2-0.4-2.4c0-0.8,0-1.2-0.4-1.6c0-1.6-0.4-3.7-0.4-5.3
	c-0.4-1.6-0.8-3.3-1.2-4.9c-0.8-1.2-1.6-2.4-2.9-3.3c-1.2-0.8-3.3-1.2-5.3-1.2h-18.8V507h-4.9v-51.8H280.7z M280.3,479.6
	c1.6,0,2.9-0.4,4.5-0.8c1.2-0.4,2.4-1.2,3.7-2c0.8-0.8,1.6-1.6,2.4-3.3c0.8-1.2,0.8-2.9,0.8-4.5c0-3.3-0.8-5.7-2.9-7.3
	c-1.6-1.6-4.5-2.9-8.6-2.9h-18.4v20.4L280.3,479.6L280.3,479.6z"/>
<path fill="#CE4232" d="M365.2,465.4c-0.8-1.6-2.4-2.9-3.7-3.7c-1.2-1.2-2.9-1.6-4.9-2.4c-1.6-0.4-3.3-0.8-5.3-0.8
	c-3.3,0-6.5,0.8-9,2c-2.4,1.2-4.5,2.9-6.1,5.3c-1.6,2-2.9,4.5-3.3,7.3c-0.8,2.9-1.2,5.3-1.2,8.2c0,2.9,0.4,5.3,1.2,8.2
	c0.8,2.9,1.6,5.3,3.3,7.3c1.6,2,3.7,3.7,6.1,5.3c2.4,1.2,5.3,2,9,2c2.4,0,4.5-0.4,6.5-1.2c1.6-0.8,3.7-2,4.9-3.7
	c1.2-1.6,2.4-3.3,3.3-5.3c0.8-2,1.2-4.1,1.6-6.5h4.9c-0.4,3.3-1.2,6.1-2.4,8.6c-1.2,2.4-2.9,4.9-4.5,6.5c-1.6,1.6-3.7,3.3-6.5,4.1
	c-2.4,0.8-5.3,1.2-8.2,1.2c-4.1,0-7.3-0.8-10.6-2.4c-2.9-1.2-5.7-3.3-7.3-6.1c-2-2.4-3.7-5.3-4.5-8.6c-0.8-3.3-1.6-6.5-1.6-10.2
	s0.4-6.9,1.6-10.2c0.8-3.3,2.4-6.1,4.5-8.6c2-2.4,4.5-4.5,7.3-6.1c2.9-1.2,6.5-2.4,10.6-2.4c2.4,0,4.9,0.4,7.3,1.2
	c2.4,0.8,4.5,1.6,6.5,3.3c1.6,1.2,3.3,3.3,4.9,5.3c1.2,2,2,4.5,2.4,6.9h-4.9C366.8,469,366,467,365.2,465.4z"/>
<path fill="#CE4232" d="M418.2,455.2v4.1h-30.6V478h28.6v4.1h-28.6v20.4h31v4.1h-35.9v-51.4H418.2z"/>
<path fill="#CE4232" d="M432.9,455.2l30.2,43.7h0.4v-43.7h4.9v51.4h-5.3l-30.2-43.7l0,0v43.7H428v-51.4H432.9z"/>
<path fill="#CE4232" d="M515.7,455.2v4.1h-18v47.3h-4.9v-46.9h-18v-4.1L515.7,455.2L515.7,455.2z"/>
<path fill="#CE4232" d="M558.6,455.2v4.1H528V478h28.6v4.1H528v20.4h31v4.1h-35.9v-51.4H558.6z"/>
<path fill="#CE4232" d="M591.6,455.2c2,0,4.1,0.4,6.1,0.8c1.6,0.4,3.7,1.2,4.9,2.4s2.4,2.4,3.3,4.1c0.8,1.6,1.2,3.7,1.2,6.1
	c0,3.3-0.8,6.1-2.4,8.6c-1.6,2.4-4.1,3.7-7.3,4.5v0.4c1.6,0.4,3.3,0.8,4.1,1.2c1.2,0.8,2,1.2,2.9,2.4c0.8,0.8,1.2,2.4,1.6,3.3
	c0.4,1.2,0.4,2.9,0.8,4.5c0,0.8,0,1.6,0.4,3.3c0,1.2,0.4,2.4,0.4,3.7c0.4,1.2,0.4,2.4,0.8,3.7c0.4,1.2,0.8,2,1.2,2.9h-5.3
	c-0.4-0.4-0.4-1.2-0.8-1.6c-0.4-0.8-0.4-1.2-0.4-2.4c0-0.8-0.4-1.2-0.4-2.4c0-0.8,0-1.2-0.4-1.6c0-1.6-0.4-3.7-0.4-5.3
	c-0.4-1.6-0.8-3.3-1.2-4.9c-0.8-1.2-1.6-2.4-2.9-3.3s-3.3-1.2-5.3-1.2h-18.8V507h-4.9v-51.8H591.6z M590.8,479.6
	c1.6,0,2.9-0.4,4.5-0.8c1.2-0.4,2.4-1.2,3.7-2c0.8-0.8,1.6-1.6,2.4-3.3c0.8-1.2,0.8-2.9,0.8-4.5c0-3.3-0.8-5.7-2.9-7.3
	c-1.6-1.6-4.5-2.9-8.6-2.9h-18.4v20.4L590.8,479.6L590.8,479.6z"/>
<path fill="#164883" d="M85.3,297.7c0,4.9,1.2,6.1,4.5,6.1v1.2H75.9v-1.2c2.9,0,4.5-0.8,4.5-6.1v-24.5c0-4.9-1.2-6.1-4.5-6.1v-1.2
	h14.3c10.6,0,15.1,5.7,15.1,11c0,6.5-4.9,10.2-13.9,10.2c-1.6,0-3.3,0-6.1-0.4 M85.3,285c1.6,0.8,2.9,0.8,4.9,0.8
	c5.7,0,9.4-3.3,9.4-8.6c0-4.1-2.4-9.8-9.4-9.8h-4.9V285z"/>
<path fill="#164883" d="M106.9,290.3c-0.4,11,6.1,13.5,9.8,13.5c3.7,0,4.9-1.2,8.6-4.9v1.6c-2.9,3.7-5.7,4.9-9.8,4.9
	c-7.3,0-13.1-5.3-13.1-12.6c0-7.3,5.3-13.1,12.2-13.1c5.7,0,10.6,4.5,10.2,10.2 M120,289.1c0.4-5.3-3.3-7.3-6.5-7.3
	c-4.1,0-6.1,2.9-6.9,7.3H120z"/>
<path fill="#164883" d="M150.6,299.7c0,3.3,0.8,4.1,4.1,4.1v1.2H142v-1.2c3.3,0,4.1-0.8,4.1-2.9v-12.6c0-3.7-2.9-5.7-5.3-5.7
	s-4.5,1.6-6.9,4.5v11.8c0,3.7,0.4,4.5,4.1,4.5v1.2h-12.6v-1.2c3.3,0,4.1-0.4,4.1-4.5v-13.5c0-2.9-0.8-3.7-4.1-3.7v-0.8l7.3-0.8h1.2
	v4.9c2.9-3.3,5.7-4.9,8.6-4.9c4.1,0,8.2,2.9,8.2,8.6"/>
<path fill="#164883" d="M181.6,299.7c0,3.3,0.8,4.1,4.1,4.1v1.2H173v-1.2c3.3,0,4.1-0.8,4.1-2.9v-12.6c0-3.7-2.9-5.7-5.3-5.7
	s-4.5,1.6-6.9,4.5v11.8c0,3.7,0.4,4.5,4.1,4.5v1.2h-13.1v-1.2c3.3,0,4.1-0.4,4.1-4.5v-13.5c0-2.9-0.8-3.7-4.1-3.7v-0.8l7.3-0.8h1.2
	v4.9c2.9-3.3,5.7-4.9,8.6-4.9c4.1,0,8.2,2.9,8.2,8.6"/>
<path fill="#164883" d="M241.1,267.1c-3.3,0-4.5,2.4-4.5,6.1l2,24.1c0.4,4.9,1.2,6.1,4.9,6.5v1.2h-13.9v-1.2c3.3-0.4,4.5-2,4.1-5.7
	l-2-25.3h-0.4L217.9,305h-0.8L204,272.8h-0.4l-2,24.1c-0.4,3.7,1.2,6.1,4.9,6.9v1.2h-12.2v-1.2c3.7-0.4,4.5-2.9,4.9-7.3l2.4-26.9
	c-1.6-1.6-2.9-2.4-4.9-2.9v-1.2h9.8l12.2,30.6l12.6-30.6h9.4"/>
<path fill="#164883" d="M247.7,290.3c-0.4,11,6.1,13.5,9.8,13.5s4.9-1.2,8.6-4.9v1.6c-2.9,3.7-5.7,4.9-9.8,4.9
	c-7.3,0-13.1-5.3-13.1-12.6c0-7.3,5.3-13.1,12.2-13.1c5.7,0,10.6,4.5,10.2,10.2 M260.7,289.1c0.4-5.3-3.3-7.3-6.5-7.3
	c-4.1,0-6.1,2.9-6.9,7.3H260.7z"/>
<path fill="#164883" d="M292.1,300.5c0,2.9,0.8,3.7,4.1,3.7v1.2h-13.9c-10.2,0-13.9-6.9-13.9-12.6c0-6.9,4.9-12.2,11.4-12.2
	c2.9,0,4.9,0.8,8.2,2.9v-14.7c0-3.3-0.8-4.1-3.3-4.1h-1.6v-1.2l8.2-0.8h1.2 M287.2,285.8c-2-2.9-4.5-4.1-6.9-4.1
	c-4.5,0-7.3,3.7-7.3,9.8c0,6.1,2.9,12.2,10.6,12.2c2.9,0,3.7-0.8,3.7-3.7V285.8L287.2,285.8z"/>
<path fill="#164883" d="M307.2,300.5c0,2.4,0.8,3.3,4.1,3.3v1.2h-13.5v-1.2c3.7,0,4.5-0.4,4.5-3.3v-14.7c0-3.3-0.8-3.7-4.5-3.7v-1.2
	l8.2-0.8h1.2 M308,270.7c0,1.6-1.2,2.9-2.9,2.9c-1.6,0-2.9-1.6-2.9-2.9c0-1.6,1.6-2.9,2.9-2.9C306.8,267.9,308,269.1,308,270.7z"/>
<path fill="#164883" d="M332.9,288.7h-1.2c-0.8-4.5-4.1-7.3-8.2-7.3c-4.9,0-8.2,4.1-8.2,9.8c0,6.5,4.1,12.2,9,12.2
	c2.9,0,6.5-1.6,9-4.9v1.6c-2.9,3.7-6.1,5.3-10.6,5.3c-7.3,0-12.2-4.9-12.2-12.2c0-7.3,5.7-13.5,12.2-13.5c3.7,0,5.7,1.6,6.9,1.6
	c0.8,0,1.2-0.4,1.6-1.6h1.2"/>
<path fill="#164883" d="M344.4,300.5c0,2.4,0.8,3.3,4.1,3.3v1.2H335v-1.2c3.7,0,4.5-0.4,4.5-3.3v-14.7c0-3.3-0.8-3.7-4.5-3.7v-1.2
	l8.2-0.8h1.2 M345.2,270.7c0,1.6-1.2,2.9-2.9,2.9c-1.6,0-2.9-1.6-2.9-2.9c0-1.6,1.6-2.9,2.9-2.9
	C343.9,267.9,345.2,269.1,345.2,270.7z"/>
<path fill="#164883" d="M375.4,299.7c0,3.3,0.8,4.1,4.1,4.1v1.2h-12.6v-1.2c3.3,0,4.1-0.8,4.1-2.9v-12.6c0-3.7-2.9-5.7-5.3-5.7
	s-4.5,1.6-6.9,4.5v11.8c0,3.7,0.4,4.5,4.1,4.5v1.2h-12.6v-1.2c3.3,0,4.1-0.4,4.1-4.5v-13.5c0-2.9-0.8-3.7-4.1-3.7v-0.8l7.3-0.8h1.2
	v4.9c2.9-3.3,5.7-4.9,8.6-4.9c4.1,0,8.2,2.9,8.2,8.6"/>
<path fill="#164883" d="M383.5,290.3c-0.4,11,6.1,13.5,9.8,13.5c3.3,0,4.9-1.2,8.6-4.9v1.6c-2.9,3.7-5.7,4.9-9.8,4.9
	c-7.3,0-13.1-5.3-13.1-12.6c0-7.3,5.3-13.1,12.2-13.1c5.7,0,10.6,4.5,10.2,10.2 M397,289.1c0.4-5.3-3.3-7.3-6.5-7.3
	c-4.1,0-6.1,2.9-6.9,7.3H397z"/>
<g>
	<g>
		<path fill="#FFFFFF" d="M5.7,266.7v28.2C9,315.6,31,324.2,31,324.2c23.7-9.8,24.9-29.4,24.9-29.4v-28.2"/>
		<path fill="none" stroke="#164883" stroke-width="0.768" d="M17.1,315.6L17.1,315.6C24.1,322.2,31,325,31,325
			c5.7-2.4,10.2-5.7,13.9-9c-3.7,3.3-8.2,6.5-13.9,9C31,324.6,24.1,322.2,17.1,315.6z"/>
		<path fill="none" stroke="#164883" stroke-width="0.768" d="M9.8,305.8L9.8,305.8c-1.2-2.4-2.4-5.3-3.7-8.6
			C6.9,300.5,8.2,303,9.8,305.8z"/>
		<path fill="none" stroke="#164883" stroke-width="0.768" d="M55.5,283v12.6c0,0-0.4,4.1-3.3,9.8l0,0c2.9-5.7,3.3-9.8,3.3-9.8V283z
			"/>
		<path fill="none" stroke="#164883" stroke-width="0.768" d="M5.7,283h50.2v-16.3H5.7v29c0.4,0.4,0.4,1.2,0.4,1.6
			c0-0.4-0.4-1.2-0.4-1.6V283z"/>
		<path fill="#164883" d="M9.4,305.8c2,4.1,4.9,7.3,7.8,9.8L31,302.2L44.9,316c3.7-3.7,5.7-6.9,7.3-10.2L30.6,285 M20,309.1
			c-2,0-3.7-1.6-3.7-3.7s1.6-3.7,3.7-3.7s3.7,1.6,3.7,3.7C23.7,307.1,22,309.1,20,309.1z M42.8,301.3c2,0,3.7,1.6,3.7,3.7
			c0,2-1.6,3.7-3.7,3.7c-2,0-3.7-1.6-3.7-3.7C38.8,303,40.4,301.3,42.8,301.3z M35.1,294.8c0,2-1.6,3.7-3.7,3.7s-3.7-1.6-3.7-3.7
			s1.6-3.7,3.7-3.7S35.1,292.8,35.1,294.8z"/>
		<path fill="none" stroke="#164883" stroke-width="0.384" d="M9.4,305.8c2,4.1,4.9,7.3,7.8,9.8L31,302.2L44.9,316
			c3.7-3.7,5.7-6.9,7.3-10.2L30.6,285L9.4,305.8z M20,309.1c-2,0-3.7-1.6-3.7-3.7s1.6-3.7,3.7-3.7s3.7,1.6,3.7,3.7
			C23.7,307.1,22,309.1,20,309.1z M42.8,301.3c2,0,3.7,1.6,3.7,3.7c0,2-1.6,3.7-3.7,3.7c-2,0-3.7-1.6-3.7-3.7
			C38.8,303,40.4,301.3,42.8,301.3z M35.1,294.8c0,2-1.6,3.7-3.7,3.7s-3.7-1.6-3.7-3.7s1.6-3.7,3.7-3.7S35.1,292.8,35.1,294.8z"/>
		<path fill="#AA1D37" d="M12.6,270.3L12.6,270.3L12.6,270.3L12.6,270.3v7.3H8.6l0,0h4.1l0,0l0,0"/>
		<path fill="none" stroke="#144984" stroke-width="0.384" d="M12.6,270.3L12.6,270.3L12.6,270.3L12.6,270.3v7.3H8.6l0,0h4.1l0,0
			l0,0V270.3z"/>
		<path fill="#AA1D37" d="M13.1,270.3L13.1,270.3L13.1,270.3"/>
		<path fill="none" stroke="#144984" stroke-width="0.384" d="M13.1,270.3L13.1,270.3L13.1,270.3z"/>
		<path fill="#AA1D37" d="M5.7,266.7V283h50.2v-16.3 M18,279.7h-5.3H7.3v-1.2c-1.2-0.8,0-2,0-2v-3.3c-0.8-1.6,0.4-2.4,0.4-2.4h0.8
			l0,0l0,0l0,0c0-0.4,0.4-0.4,0.4-0.4l-0.4,0.4c0.4-0.4,0.4-0.4,0.4-0.4c1.2-0.8,2.4-0.4,3.3-0.4c0.4,0,0.4,0.4,0.4,0.4
			c0.4-0.4,0.8-0.4,1.2-0.4c1.6-0.4,2.4,0.4,2.4,0.8l0,0l0,0v6.9h-3.7l0,0h4.1v-6.9l0,0l0,0h0.8c0,0,1.2,0.8,0.4,2.4v3.3
			c0,0,1.2,0.8,0,2L18,279.7L18,279.7z M41.6,278.5c-3.3,4.9-8.6,1.2-8.6,1.2c-4.9-4.1-6.5-1.6-6.5-1.6c-2.9,3.7-5.3,3.3-5.7,2
			c-1.2-0.4-1.2-1.2-0.4-1.2c0.8-0.4,0.4-0.8,0.4-0.8c-2-2,2.4-7.3,2.4-7.3s0.4-0.4,0.8-0.8c0.8-0.4,1.2-0.4,1.2,0.4
			c0.4-0.4,0.4-0.8,1.2-0.8c0.4,0,0.8,0.4,0.8,0.8c0,0,2-0.8,2,0.4h0.4c0.4,0,1.2-0.4,1.2,0.8h0.8c0.4,0.4,0.4,0.4,0.4,0.8
			c0.4,0,0.8,0,1.2,0.4c0.4,0.4,0.4,0.8,0.4,1.2c0.4,0,0.8,0.4,0.8,0.8c0,0.4,0,0.4,0,0.4c0,0.4,0.4,0,0.4,0.4c0.4,0.4,0.4,1.2,0,2
			c2,3.3,4.1,0.8,4.1,0.8c1.2-2-0.4-2-0.4-2c-1.2-0.4-2.4,2-2.4,2c-1.2-4.1,2-3.7,2-3.7c-0.4-4.5,3.3-2.9,3.3-2.9
			c-2,2-0.8,3.3-0.8,3.3C42.4,276.5,41.6,278.5,41.6,278.5z M53.9,279.7h-5.3h-5.3v-1.2c-1.2-0.8,0-2,0-2v-3.3
			c-0.8-1.6,0.4-2.4,0.4-2.4h0.8c1.6-1.6,4.1-0.4,4.1-0.4v7.3h-4.1l0,0h4.1l0,0l0,0v-7.3l0,0l0,0c0,0-2.4-0.8-4.1,0.4
			c1.2-1.6,4.1-0.4,4.1-0.4c2.4-0.8,3.7,0.4,4.1,0.4c-2-1.6-4.1-0.4-4.1-0.4l0,0c2.4-0.8,3.7,0.4,4.1,0.4v6.9h-4.1l0,0h4.1v-6.9l0,0
			h0.8c0,0,1.2,0.8,0.4,2.4v3.3c0,0,1.2,0.8,0,2V279.7z"/>
		<path fill="none" stroke="#164883" stroke-width="0.384" d="M5.7,266.7V283h50.2v-16.3C55.9,266.7,5.7,266.7,5.7,266.7z M18,279.7
			h-5.3H7.3v-1.2c-1.2-0.8,0-2,0-2v-3.3c-0.8-1.6,0.4-2.4,0.4-2.4h0.8l0,0l0,0l0,0c0-0.4,0.4-0.4,0.4-0.4l-0.4,0.4
			c0.4-0.4,0.4-0.4,0.4-0.4c1.2-0.8,2.4-0.4,3.3-0.4c0.4,0,0.4,0.4,0.4,0.4c0.4-0.4,0.8-0.4,1.2-0.4c1.6-0.4,2.4,0.4,2.4,0.8l0,0
			l0,0v6.9h-3.7l0,0h4.1v-6.9l0,0l0,0h0.8c0,0,1.2,0.8,0.4,2.4v3.3c0,0,1.2,0.8,0,2L18,279.7L18,279.7z M41.6,278.5
			c-3.3,4.9-8.6,1.2-8.6,1.2c-4.9-4.1-6.5-1.6-6.5-1.6c-2.9,3.7-5.3,3.3-5.7,2c-1.2-0.4-1.2-1.2-0.4-1.2c0.8-0.4,0.4-0.8,0.4-0.8
			c-2-2,2.4-7.3,2.4-7.3s0.4-0.4,0.8-0.8c0.8-0.4,1.2-0.4,1.2,0.4c0.4-0.4,0.4-0.8,1.2-0.8c0.4,0,0.8,0.4,0.8,0.8c0,0,2-0.8,2,0.4
			h0.4c0.4,0,1.2-0.4,1.2,0.8h0.8c0.4,0.4,0.4,0.4,0.4,0.8c0.4,0,0.8,0,1.2,0.4c0.4,0.4,0.4,0.8,0.4,1.2c0.4,0,0.8,0.4,0.8,0.8
			c0,0.4,0,0.4,0,0.4c0,0.4,0.4,0,0.4,0.4c0.4,0.4,0.4,1.2,0,2c2,3.3,4.1,0.8,4.1,0.8c1.2-2-0.4-2-0.4-2c-1.2-0.4-2.4,2-2.4,2
			c-1.2-4.1,2-3.7,2-3.7c-0.4-4.5,3.3-2.9,3.3-2.9c-2,2-0.8,3.3-0.8,3.3C42.4,276.5,41.6,278.5,41.6,278.5z M53.9,279.7h-5.3h-5.3
			v-1.2c-1.2-0.8,0-2,0-2v-3.3c-0.8-1.6,0.4-2.4,0.4-2.4h0.8c1.6-1.6,4.1-0.4,4.1-0.4v7.3h-4.1l0,0h4.1l0,0l0,0v-7.3l0,0l0,0
			c0,0-2.4-0.8-4.1,0.4c1.2-1.6,4.1-0.4,4.1-0.4c2.4-0.8,3.7,0.4,4.1,0.4c-2-1.6-4.1-0.4-4.1-0.4l0,0c2.4-0.8,3.7,0.4,4.1,0.4v6.9
			h-4.1l0,0h4.1v-6.9l0,0h0.8c0,0,1.2,0.8,0.4,2.4v3.3c0,0,1.2,0.8,0,2V279.7z"/>
		<path fill="#164883" d="M24.1,278.1c0,0.4-0.8,1.2-3.7,2C20.8,280.1,23.7,279.3,24.1,278.1"/>
		<path fill="none" stroke="#164883" stroke-width="0.384" stroke-linejoin="round" d="M24.1,278.1c0,0.4-0.8,1.2-3.7,2
			C20.8,280.1,23.7,279.3,24.1,278.1z"/>
		<path fill="#164883" d="M12.6,270.3L12.6,270.3c-0.8-0.4-2-0.4-3.3,0.4c0,0,0,0-0.4,0.4C10.2,269.9,11.8,270.3,12.6,270.3"/>
		<path fill="none" stroke="#164883" stroke-width="0.384" d="M12.6,270.3L12.6,270.3c-0.8-0.4-2-0.4-3.3,0.4c0,0,0,0-0.4,0.4
			C10.2,269.9,11.8,270.3,12.6,270.3z"/>
		<path fill="#164883" d="M13.1,270.3C13.1,270.3,12.6,270.3,13.1,270.3C12.6,270.3,12.6,270.3,13.1,270.3
			C12.6,270.3,12.6,270.3,13.1,270.3"/>
		<path fill="none" stroke="#164883" stroke-width="0.384" d="M13.1,270.3C13.1,270.3,12.6,270.3,13.1,270.3
			C12.6,270.3,12.6,270.3,13.1,270.3C12.6,270.3,12.6,270.3,13.1,270.3z"/>
		<path fill="#164883" d="M16.7,271.2C16.7,271.2,16.3,270.7,16.7,271.2C16.3,270.7,16.3,270.7,16.7,271.2c-0.4-0.4-1.2-0.8-2.4-0.8
			c-0.4,0-0.8,0-1.2,0.4C13.5,270.3,15.5,269.9,16.7,271.2"/>
		<path fill="none" stroke="#164883" stroke-width="0.384" d="M16.7,271.2C16.7,271.2,16.3,270.7,16.7,271.2
			C16.3,270.7,16.3,270.7,16.7,271.2c-0.4-0.4-1.2-0.8-2.4-0.8c-0.4,0-0.8,0-1.2,0.4C13.5,270.3,15.5,269.9,16.7,271.2z"/>
		<polyline fill="#164883" points="8.6,278.1 8.6,278.1 8.6,271.2 8.6,271.2 		"/>
		<polygon fill="none" stroke="#164883" stroke-width="0.384" points="8.6,278.1 8.6,278.1 8.6,271.2 8.6,271.2 		"/>
		<polyline fill="#164883" points="12.6,278.1 12.6,278.1 12.6,270.3 		"/>
		<polygon fill="none" stroke="#164883" stroke-width="0.384" points="12.6,278.1 12.6,278.1 12.6,270.3 		"/>
		<polyline fill="#164883" points="49,270.7 49,270.7 49,278.1 		"/>
		<polygon fill="none" stroke="#164883" stroke-width="0.384" points="49,270.7 49,270.7 49,278.1 		"/>
		<path fill="#164883" d="M44.9,278.1L44.9,278.1v-6.9l0,0"/>
		<path fill="none" stroke="#164883" stroke-width="0.384" d="M44.9,278.1L44.9,278.1v-6.9l0,0V278.1z"/>
		<path fill="#164883" d="M23.7,272c9.4-2.4,11,4.9,11,4.9c0.4,0.4,0.4,0.4,0.8,0.8l0,0c-0.4-0.4-0.4-0.4-0.8-0.8
			C34.7,276.5,33,269.5,23.7,272"/>
		<path fill="none" stroke="#164883" stroke-width="0.384" d="M23.7,272c9.4-2.4,11,4.9,11,4.9c0.4,0.4,0.4,0.4,0.8,0.8l0,0
			c-0.4-0.4-0.4-0.4-0.8-0.8C34.7,276.5,33,269.5,23.7,272z"/>
		<path fill="#144984" d="M26.1,274.8L26.1,274.8L26.1,274.8"/>
		<path fill="none" stroke="#144984" stroke-width="9.700000e-02" d="M26.1,274.8L26.1,274.8L26.1,274.8z"/>
		<path fill="#164883" d="M22.4,277.7l0.8-0.8l-0.8-0.4C22,276.9,22,277.3,22.4,277.7"/>
		<path fill="none" stroke="#164883" stroke-width="9.700000e-02" d="M22.4,277.7l0.8-0.8l-0.8-0.4C22,276.9,22,277.3,22.4,277.7z"
			/>
		<path fill="#164883" d="M26.1,277.3c0.8-0.4,1.2-1.2,1.2-1.6c0-0.8-0.4-1.2-0.8-1.2l-0.4-0.4c0.4-0.4,0.8-0.4,0.8-0.4
			c0.4,0,0.4,0.4,0.8,0.8c0.4,0.4,0.8-0.4,1.2,0c0.4,0.4,0.4,0.8,0.8,0.8c1.2,0,1.2,0.4,1.2,1.2c0.8,0,0.8,0.4,0.8,0.8l0.4-0.4
			c-0.4-0.8-0.4-1.2-1.2-1.2c0-0.8-0.4-1.2-1.2-0.8c-0.4,0.4-0.4-0.8-0.8-1.2c-0.4-0.4-0.8,0.4-1.2,0.4c-0.4-0.4-0.4-0.8-0.8-0.8
			c-0.4-0.4-1.6,0.4-1.6,0.8l0,0c-1.2-0.4-1.2,0.8-1.2,0c0-0.4,0.4-1.2-0.4-2.4c-0.4-0.4-0.4-0.4-0.8-0.8c0,0,0.4-0.8,0.8-0.8
			c0.8-0.4,0.8-0.4,1.2,0.4c0.4-0.4,0.8-0.8,1.2-0.8s0.8,0.4,0.8,0.8c0,0,2-0.8,2,0.4h0.4c0.4,0,1.2-0.4,1.2,0.8h0.8
			c0.4,0.4,0.4,0.4,0.4,0.8c0.4,0,0.8,0,1.2,0.4c0.4,0.4,0.4,0.8,0.4,1.2c0.4,0,0.8,0.4,0.8,0.8c0,0.4,0,0.4,0,0.4
			c0,0.4,0.4,0,0.4,0.4c0.4,0.4,0.4,1.2,0,2h0.4l0.4-1.2c0-0.4-0.4-0.8-0.4-1.2v-0.8c0-0.4-0.4-0.8-0.8-0.8c0-0.4-0.4-0.8-0.4-1.2
			c-0.4-0.4-0.4-0.4-0.8-0.4c0-0.4-0.4-0.8-0.8-0.8h-0.4c0-0.8-0.4-1.2-1.2-1.2l-0.4,0.4c-0.4-0.4-0.4-0.8-0.8-0.8
			c-0.8-0.4-1.2,0.4-1.2,0.4c-0.4-0.4-0.4-0.8-0.8-0.8c-0.8,0-0.8,0.4-1.2,0.4c-0.4-0.4-0.4-0.4-0.8-0.4c-0.4,0-0.8,0-1.2,0.4
			l-0.4,0.4c0,0,0,0-0.4,0.4c-0.4-0.4-0.4-0.4-0.4-0.4s0,0.8-0.4,1.6c0.8-0.8,2.9,2,0.8,4.1c0.4-0.4,1.2-1.2,2-1.2h0.4l0.4,0.4
			c0.4,0.4,0,0.4,0.4,0.8c0,0,0.8-0.4,0.8,0.8C26.9,276.5,26.9,276.9,26.1,277.3l0.8,0.4l0.8-0.4"/>
		<path fill="none" stroke="#164883" stroke-width="9.700000e-02" d="M26.1,277.3c0.8-0.4,1.2-1.2,1.2-1.6c0-0.8-0.4-1.2-0.8-1.2
			l-0.4-0.4c0.4-0.4,0.8-0.4,0.8-0.4c0.4,0,0.4,0.4,0.8,0.8c0.4,0.4,0.8-0.4,1.2,0c0.4,0.4,0.4,0.8,0.8,0.8c1.2,0,1.2,0.4,1.2,1.2
			c0.8,0,0.8,0.4,0.8,0.8l0.4-0.4c-0.4-0.8-0.4-1.2-1.2-1.2c0-0.8-0.4-1.2-1.2-0.8c-0.4,0.4-0.4-0.8-0.8-1.2
			c-0.4-0.4-0.8,0.4-1.2,0.4c-0.4-0.4-0.4-0.8-0.8-0.8c-0.4-0.4-1.6,0.4-1.6,0.8l0,0c-1.2-0.4-1.2,0.8-1.2,0c0-0.4,0.4-1.2-0.4-2.4
			c-0.4-0.4-0.4-0.4-0.8-0.8c0,0,0.4-0.8,0.8-0.8c0.8-0.4,0.8-0.4,1.2,0.4c0.4-0.4,0.8-0.8,1.2-0.8s0.8,0.4,0.8,0.8c0,0,2-0.8,2,0.4
			h0.4c0.4,0,1.2-0.4,1.2,0.8h0.8c0.4,0.4,0.4,0.4,0.4,0.8c0.4,0,0.8,0,1.2,0.4c0.4,0.4,0.4,0.8,0.4,1.2c0.4,0,0.8,0.4,0.8,0.8
			c0,0.4,0,0.4,0,0.4c0,0.4,0.4,0,0.4,0.4c0.4,0.4,0.4,1.2,0,2h0.4l0.4-1.2c0-0.4-0.4-0.8-0.4-1.2v-0.8c0-0.4-0.4-0.8-0.8-0.8
			c0-0.4-0.4-0.8-0.4-1.2c-0.4-0.4-0.4-0.4-0.8-0.4c0-0.4-0.4-0.8-0.8-0.8h-0.4c0-0.8-0.4-1.2-1.2-1.2l-0.4,0.4
			c-0.4-0.4-0.4-0.8-0.8-0.8c-0.8-0.4-1.2,0.4-1.2,0.4c-0.4-0.4-0.4-0.8-0.8-0.8c-0.8,0-0.8,0.4-1.2,0.4c-0.4-0.4-0.4-0.4-0.8-0.4
			c-0.4,0-0.8,0-1.2,0.4l-0.4,0.4c0,0,0,0-0.4,0.4c-0.4-0.4-0.4-0.4-0.4-0.4s0,0.8-0.4,1.6c0.8-0.8,2.9,2,0.8,4.1
			c0.4-0.4,1.2-1.2,2-1.2h0.4l0.4,0.4c0.4,0.4,0,0.4,0.4,0.8c0,0,0.8-0.4,0.8,0.8C26.9,276.5,26.9,276.9,26.1,277.3l0.8,0.4l0.8-0.4
			H26.1z"/>
		<path fill="#164883" d="M12.6,277.7c1.6-0.8,4.1,0,4.1,0v0.4h-2.4l-1.2,0.8l-1.2-0.4H9.4v-0.4C9,277.7,11.4,276.9,12.6,277.7"/>
		<path fill="none" stroke="#164883" stroke-width="9.700000e-02" d="M12.6,277.7c1.6-0.8,4.1,0,4.1,0v0.4h-2.4l-1.2,0.8l-1.2-0.4
			H9.4v-0.4C9,277.7,11.4,276.9,12.6,277.7"/>
		<path fill="#164883" d="M49,277.7c1.6-0.8,4.1,0,4.1,0v0.4h-2.4l-1.2,0.8l-1.2-0.4h-2.4v-0.4C44.9,277.7,47.3,276.9,49,277.7"/>
		<path fill="none" stroke="#164883" stroke-width="9.700000e-02" d="M49,277.7c1.6-0.8,4.1,0,4.1,0v0.4h-2.4l-1.2,0.8l-1.2-0.4
			h-2.4v-0.4C44.9,277.7,47.3,276.9,49,277.7"/>
	</g>
	<circle fill="#FFFFFF" cx="31" cy="294.8" r="3.7"/>
	<circle fill="#FFFFFF" cx="42.8" cy="305" r="3.7"/>
	<circle fill="#FFFFFF" cx="19.6" cy="305" r="3.7"/>
</g>
</svg>
