<?xml version="1.0" encoding="utf-8"?>
<!-- Generator: Adobe Illustrator 18.1.0, SVG Export Plug-In . SVG Version: 6.00 Build 0)  -->
<!DOCTYPE svg PUBLIC "-//W3C//DTD SVG 1.1//EN" "http://www.w3.org/Graphics/SVG/1.1/DTD/svg11.dtd">
<svg version="1.1" id="Layer_1" xmlns="http://www.w3.org/2000/svg" xmlns:xlink="http://www.w3.org/1999/xlink" x="0px" y="0px"
	 viewBox="11.2 353 584.7 84.5" enable-background="new 11.2 353 584.7 84.5" xml:space="preserve">
<g>
	<path fill="#FFFFFF" d="M11.5,355.2v15.3c1.8,11.3,13.6,15.9,13.6,15.9c12.8-5.4,13.4-15.9,13.4-15.9v-15.3"/>
	<path fill="none" stroke="#004684" stroke-width="0.768" d="M17.7,381.5L17.7,381.5c3.7,3.4,7.5,5,7.5,5c3.2-1.4,5.6-3.1,7.4-4.8
		c-1.9,1.8-4.3,3.6-7.4,4.8C25.2,386.4,21.4,385,17.7,381.5z"/>
	<path fill="none" stroke="#004684" stroke-width="0.768" d="M13.6,376.2L13.6,376.2c-0.8-1.4-1.4-2.9-1.9-4.6
		C12.1,373.4,12.9,374.8,13.6,376.2z"/>
	<path fill="none" stroke="#004684" stroke-width="0.768" d="M38.5,364v6.8c0,0-0.3,2.3-1.8,5.4l0,0c1.5-3.1,1.8-5.4,1.8-5.4V364z"
		/>
	<path fill="none" stroke="#004684" stroke-width="0.768" d="M11.6,364h27v-8.9h-27v15.6c0.1,0.3,0.1,0.6,0.3,0.9
		c0-0.3-0.1-0.6-0.3-0.9V364z"/>
	<path fill="#004684" d="M13.5,376.2c1.1,2.2,2.7,4,4.2,5.4l7.5-7.3l7.5,7.4c1.9-1.9,3.2-3.8,4.1-5.6l-11.7-11.2 M19.1,378
		c-1.1,0-2-0.9-2-2c0-1.1,0.9-2,2-2c1.1,0,2,0.9,2,2C21.3,377,20.3,378,19.1,378z M31.5,373.8c1.1,0,2,0.9,2,2c0,1.1-0.9,2-2,2
		s-2-0.9-2-2C29.3,374.7,30.3,373.8,31.5,373.8z M27.4,370.4c0,1.1-0.9,2-2,2c-1.1,0-2-0.9-2-2s0.9-2,2-2
		C26.5,368.3,27.4,369.2,27.4,370.4z"/>
	<path fill="none" stroke="#004684" stroke-width="0.384" d="M13.5,376.2c1.1,2.2,2.7,4,4.2,5.4l7.5-7.3l7.5,7.4
		c1.9-1.9,3.2-3.8,4.1-5.6l-11.7-11.2L13.5,376.2z M19.1,378c-1.1,0-2-0.9-2-2c0-1.1,0.9-2,2-2c1.1,0,2,0.9,2,2
		C21.3,377,20.3,378,19.1,378z M31.5,373.8c1.1,0,2,0.9,2,2c0,1.1-0.9,2-2,2s-2-0.9-2-2C29.3,374.7,30.3,373.8,31.5,373.8z
		 M27.4,370.4c0,1.1-0.9,2-2,2c-1.1,0-2-0.9-2-2s0.9-2,2-2C26.5,368.3,27.4,369.2,27.4,370.4z"/>
	<path fill="#A90533" d="M15.3,357.1L15.3,357.1c0,0,0,0-0.1,0H15.3v4.1h-2.2l0,0h2.2l0,0l0,0"/>
	<path fill="none" stroke="#004785" stroke-width="0.384" d="M15.3,357.1L15.3,357.1c0,0,0,0-0.1,0H15.3v4.1h-2.2l0,0h2.2l0,0l0,0
		V357.1z"/>
	<path fill="#A90533" d="M15.4,357.1L15.4,357.1L15.4,357.1"/>
	<path fill="none" stroke="#004785" stroke-width="0.384" d="M15.4,357.1L15.4,357.1L15.4,357.1z"/>
	<path fill="#A90533" d="M11.6,355.2v8.9h27v-8.9 M18.1,362.2h-2.8h-2.8v-0.6c-0.6-0.5,0-1.1,0-1.1v-1.8c-0.5-0.9,0.3-1.3,0.3-1.3
		h0.4l0,0l0,0l0,0c0-0.1,0.1-0.1,0.1-0.1l-0.1,0.1c0.1-0.1,0.1-0.1,0.3-0.3c0.6-0.4,1.3-0.3,1.7-0.1c0.1,0,0.1,0.1,0.1,0.1
		c0.3-0.1,0.5-0.1,0.8-0.1c0.9-0.1,1.3,0.3,1.4,0.4l0,0l0,0v3.8h-2l0,0h2.2v-3.8l0,0l0,0h0.4c0,0,0.8,0.4,0.3,1.3v1.8
		c0,0,0.6,0.5,0,1.1V362.2z M30.9,361.4c-1.7,2.5-4.6,0.8-4.6,0.8c-2.5-2.2-3.4-0.9-3.4-0.9c-1.5,1.9-2.9,1.7-3.2,1.1
		c-0.6-0.1-0.6-0.6-0.3-0.8c0.5-0.3,0.3-0.4,0.3-0.4c-1.1-1,1.4-4.1,1.4-4.1s0.3-0.3,0.5-0.4c0.4-0.1,0.6-0.1,0.8,0.3
		c0.3-0.3,0.3-0.4,0.6-0.4c0.3,0,0.5,0.1,0.5,0.4c0,0,1-0.5,1,0.3h0.3c0.3,0,0.8-0.1,0.8,0.5h0.4c0.3,0.1,0.3,0.3,0.3,0.4
		c0.3,0,0.4,0,0.6,0.1s0.3,0.4,0.3,0.6c0.3,0,0.5,0.3,0.5,0.5c0,0.1,0,0.1,0,0.3s0.1,0,0.1,0.1c0.1,0.1,0.1,0.6,0,1
		c1.1,1.8,2.3,0.4,2.3,0.4c0.6-1-0.3-1.1-0.3-1.1c-0.8-0.1-1.3,1-1.3,1c-0.8-2.2,1-2,1-2c-0.1-2.4,1.7-1.5,1.7-1.5
		c-1,1.1-0.4,1.8-0.4,1.8C31.4,360.4,30.9,361.4,30.9,361.4z M37.6,362.2h-2.8H32v-0.6c-0.6-0.5,0-1.1,0-1.1v-1.8
		c-0.5-0.9,0.3-1.3,0.3-1.3h0.4c0.9-0.9,2.2-0.3,2.2-0.3v4.1h-2.2l0,0h2.2l0,0l0,0v-4.1l0,0l0,0c0,0-1.3-0.5-2.2,0.3
		c0.8-0.9,2.2-0.3,2.2-0.3c1.4-0.5,1.9,0.1,2.2,0.3c-1-0.9-2.2-0.3-2.2-0.3l0,0c1.3-0.5,2,0.1,2.2,0.3v3.7h-2.2l0,0H37v-3.8l0,0h0.4
		c0,0,0.8,0.4,0.3,1.3v1.8c0,0,0.6,0.5,0,1.1V362.2z"/>
	<path fill="none" stroke="#004684" stroke-width="0.384" d="M11.6,355.2v8.9h27v-8.9H11.6z M18.1,362.2h-2.8h-2.8v-0.6
		c-0.6-0.5,0-1.1,0-1.1v-1.8c-0.5-0.9,0.3-1.3,0.3-1.3h0.4l0,0l0,0l0,0c0-0.1,0.1-0.1,0.1-0.1l-0.1,0.1c0.1-0.1,0.1-0.1,0.3-0.3
		c0.6-0.4,1.3-0.3,1.7-0.1c0.1,0,0.1,0.1,0.1,0.1c0.3-0.1,0.5-0.1,0.8-0.1c0.9-0.1,1.3,0.3,1.4,0.4l0,0l0,0v3.8h-2l0,0h2.2v-3.8l0,0
		l0,0h0.4c0,0,0.8,0.4,0.3,1.3v1.8c0,0,0.6,0.5,0,1.1V362.2z M30.9,361.4c-1.7,2.5-4.6,0.8-4.6,0.8c-2.5-2.2-3.4-0.9-3.4-0.9
		c-1.5,1.9-2.9,1.7-3.2,1.1c-0.6-0.1-0.6-0.6-0.3-0.8c0.5-0.3,0.3-0.4,0.3-0.4c-1.1-1,1.4-4.1,1.4-4.1s0.3-0.3,0.5-0.4
		c0.4-0.1,0.6-0.1,0.8,0.3c0.3-0.3,0.3-0.4,0.6-0.4c0.3,0,0.5,0.1,0.5,0.4c0,0,1-0.5,1,0.3h0.3c0.3,0,0.8-0.1,0.8,0.5h0.4
		c0.3,0.1,0.3,0.3,0.3,0.4c0.3,0,0.4,0,0.6,0.1s0.3,0.4,0.3,0.6c0.3,0,0.5,0.3,0.5,0.5c0,0.1,0,0.1,0,0.3s0.1,0,0.1,0.1
		c0.1,0.1,0.1,0.6,0,1c1.1,1.8,2.3,0.4,2.3,0.4c0.6-1-0.3-1.1-0.3-1.1c-0.8-0.1-1.3,1-1.3,1c-0.8-2.2,1-2,1-2
		c-0.1-2.4,1.7-1.5,1.7-1.5c-1,1.1-0.4,1.8-0.4,1.8C31.4,360.4,30.9,361.4,30.9,361.4z M37.6,362.2h-2.8H32v-0.6
		c-0.6-0.5,0-1.1,0-1.1v-1.8c-0.5-0.9,0.3-1.3,0.3-1.3h0.4c0.9-0.9,2.2-0.3,2.2-0.3v4.1h-2.2l0,0h2.2l0,0l0,0v-4.1l0,0l0,0
		c0,0-1.3-0.5-2.2,0.3c0.8-0.9,2.2-0.3,2.2-0.3c1.4-0.5,1.9,0.1,2.2,0.3c-1-0.9-2.2-0.3-2.2-0.3l0,0c1.3-0.5,2,0.1,2.2,0.3v3.7h-2.2
		l0,0H37v-3.8l0,0h0.4c0,0,0.8,0.4,0.3,1.3v1.8c0,0,0.6,0.5,0,1.1V362.2z"/>
	<path fill="#004684" d="M21.5,361.2c0,0.1-0.4,0.8-1.9,1.1C19.6,362.5,21.3,362,21.5,361.2"/>
	<path fill="none" stroke="#004684" stroke-width="0.384" stroke-linejoin="round" d="M21.5,361.2c0,0.1-0.4,0.8-1.9,1.1
		C19.6,362.5,21.3,362,21.5,361.2z"/>
	<path fill="#004684" d="M15.2,357.1L15.2,357.1c-0.4-0.1-1.1-0.3-1.7,0.1c0,0,0,0-0.1,0.1C14,356.9,14.8,357,15.2,357.1"/>
	<path fill="none" stroke="#004684" stroke-width="0.384" d="M15.2,357.1L15.2,357.1c-0.4-0.1-1.1-0.3-1.7,0.1c0,0,0,0-0.1,0.1
		C14,356.9,14.8,357,15.2,357.1z"/>
	<path fill="#004684" d="M15.4,357.1C15.4,357.1,15.3,357.1,15.4,357.1C15.3,357.1,15.3,357.1,15.4,357.1
		C15.3,357.1,15.3,357.1,15.4,357.1"/>
	<path fill="none" stroke="#004684" stroke-width="0.384" d="M15.4,357.1C15.4,357.1,15.3,357.1,15.4,357.1
		C15.3,357.1,15.3,357.1,15.4,357.1C15.3,357.1,15.3,357.1,15.4,357.1z"/>
	<path fill="#004684" d="M17.5,357.5C17.5,357.5,17.3,357.4,17.5,357.5C17.3,357.4,17.3,357.4,17.5,357.5c-0.1-0.1-0.6-0.5-1.4-0.5
		c-0.1,0-0.4,0-0.6,0.1C15.8,357,16.7,356.9,17.5,357.5"/>
	<path fill="none" stroke="#004684" stroke-width="0.384" d="M17.5,357.5C17.5,357.5,17.3,357.4,17.5,357.5
		C17.3,357.4,17.3,357.4,17.5,357.5c-0.1-0.1-0.6-0.5-1.4-0.5c-0.1,0-0.4,0-0.6,0.1C15.8,357,16.7,356.9,17.5,357.5z"/>
	<polyline fill="#004684" points="13.1,361.2 13.1,361.2 13.1,357.5 13.1,357.5 	"/>
	<polygon fill="none" stroke="#004684" stroke-width="0.384" points="13.1,361.2 13.1,361.2 13.1,357.5 13.1,357.5 	"/>
	<polyline fill="#004684" points="15.3,361.2 15.3,361.2 15.3,357.1 	"/>
	<polygon fill="none" stroke="#004684" stroke-width="0.384" points="15.3,361.2 15.3,361.2 15.3,357.1 	"/>
	<polyline fill="#004684" points="34.8,357.2 34.8,357.2 34.8,361.2 	"/>
	<polygon fill="none" stroke="#004684" stroke-width="0.384" points="34.8,357.2 34.8,357.2 34.8,361.2 	"/>
	<path fill="#004684" d="M32.6,361.2L32.6,361.2v-3.7l0,0"/>
	<path fill="none" stroke="#004684" stroke-width="0.384" d="M32.6,361.2L32.6,361.2v-3.7l0,0V361.2z"/>
	<path fill="#004684" d="M21.3,357.9c5-1.3,5.9,2.5,5.9,2.5c0.1,0.3,0.3,0.3,0.4,0.4l0,0c-0.1-0.1-0.3-0.3-0.4-0.4
		C27.3,360.4,26.3,356.6,21.3,357.9"/>
	<path fill="none" stroke="#004684" stroke-width="0.384" d="M21.3,357.9c5-1.3,5.9,2.5,5.9,2.5c0.1,0.3,0.3,0.3,0.4,0.4l0,0
		c-0.1-0.1-0.3-0.3-0.4-0.4C27.3,360.4,26.3,356.6,21.3,357.9z"/>
	<path fill="#004785" d="M22.6,359.4L22.6,359.4C22.4,359.4,22.4,359.4,22.6,359.4"/>
	<path fill="none" stroke="#004785" stroke-width="9.700000e-02" d="M22.6,359.4L22.6,359.4C22.4,359.4,22.4,359.4,22.6,359.4z"/>
	<path fill="#004684" d="M20.5,361.1l0.5-0.4l-0.5-0.1C20.4,360.7,20.4,360.9,20.5,361.1"/>
	<path fill="none" stroke="#004684" stroke-width="9.700000e-02" d="M20.5,361.1l0.5-0.4l-0.5-0.1C20.4,360.7,20.4,360.9,20.5,361.1
		z"/>
	<path fill="#004684" d="M22.4,360.9c0.5-0.3,0.6-0.6,0.6-0.9c0-0.4-0.1-0.6-0.4-0.8l-0.1-0.1c0.1-0.1,0.4-0.3,0.5-0.3
		c0.3,0,0.3,0.3,0.4,0.4c0.3,0.1,0.5-0.1,0.8,0c0.3,0.1,0.3,0.5,0.5,0.5c0.6,0,0.6,0.3,0.6,0.6c0.4,0,0.5,0.1,0.5,0.5l0.3-0.1
		c-0.1-0.4-0.3-0.6-0.6-0.6c0-0.4-0.3-0.6-0.6-0.5c-0.3,0.1-0.3-0.5-0.5-0.6s-0.5,0.3-0.8,0.1c-0.1-0.1-0.3-0.4-0.4-0.4
		c-0.3-0.1-0.9,0.1-0.9,0.4l0,0c-0.6-0.3-0.8,0.4-0.6,0c0-0.3,0.1-0.8-0.3-1.3c-0.1-0.1-0.3-0.3-0.4-0.4c0,0,0.3-0.4,0.5-0.4
		c0.4-0.1,0.5-0.1,0.8,0.3c0.3-0.3,0.4-0.4,0.6-0.4s0.4,0.1,0.5,0.4c0,0,1-0.5,1.1,0.3h0.3c0.3,0,0.8-0.1,0.8,0.5H26
		c0.3,0.1,0.3,0.3,0.3,0.4c0.3,0,0.4,0,0.6,0.1s0.3,0.4,0.3,0.6c0.3,0,0.5,0.3,0.5,0.5c0,0.1,0,0.1,0,0.3c0,0.1,0.1,0,0.1,0.1
		c0.1,0.1,0.1,0.6,0,1h0.1l0.1-0.6c0-0.3-0.1-0.5-0.3-0.6c0,0,0-0.4,0-0.5c0-0.3-0.1-0.4-0.4-0.4c0-0.3-0.1-0.5-0.3-0.8
		c-0.1-0.1-0.1-0.1-0.4-0.1c0-0.3-0.3-0.5-0.5-0.5H26c0-0.4-0.3-0.6-0.6-0.6l-0.3,0.1c-0.1-0.1-0.3-0.4-0.5-0.4
		c-0.5-0.1-0.8,0.3-0.8,0.3c-0.1-0.1-0.3-0.4-0.4-0.4c-0.4,0-0.4,0.1-0.6,0.3c-0.1-0.3-0.3-0.3-0.5-0.3c-0.3,0-0.5,0-0.8,0.3
		l-0.3,0.3c0,0,0,0-0.1,0.1C21,357,21,357,21,357s0,0.5-0.3,0.9c0.5-0.5,1.5,1,0.5,2.2c0.3-0.3,0.8-0.8,1-0.6c0,0,0.1,0,0.3,0
		l0.1,0.1c0.1,0.1,0,0.1,0.1,0.4c0,0,0.5-0.1,0.5,0.5C22.9,360.4,22.9,360.7,22.4,360.9l0.4,0.3l0.4-0.3"/>
	<path fill="none" stroke="#004684" stroke-width="9.700000e-02" d="M22.4,360.9c0.5-0.3,0.6-0.6,0.6-0.9c0-0.4-0.1-0.6-0.4-0.8
		l-0.1-0.1c0.1-0.1,0.4-0.3,0.5-0.3c0.3,0,0.3,0.3,0.4,0.4c0.3,0.1,0.5-0.1,0.8,0c0.3,0.1,0.3,0.5,0.5,0.5c0.6,0,0.6,0.3,0.6,0.6
		c0.4,0,0.5,0.1,0.5,0.5l0.3-0.1c-0.1-0.4-0.3-0.6-0.6-0.6c0-0.4-0.3-0.6-0.6-0.5c-0.3,0.1-0.3-0.5-0.5-0.6s-0.5,0.3-0.8,0.1
		c-0.1-0.1-0.3-0.4-0.4-0.4c-0.3-0.1-0.9,0.1-0.9,0.4l0,0c-0.6-0.3-0.8,0.4-0.6,0c0-0.3,0.1-0.8-0.3-1.3c-0.1-0.1-0.3-0.3-0.4-0.4
		c0,0,0.3-0.4,0.5-0.4c0.4-0.1,0.5-0.1,0.8,0.3c0.3-0.3,0.4-0.4,0.6-0.4s0.4,0.1,0.5,0.4c0,0,1-0.5,1.1,0.3h0.3
		c0.3,0,0.8-0.1,0.8,0.5H26c0.3,0.1,0.3,0.3,0.3,0.4c0.3,0,0.4,0,0.6,0.1s0.3,0.4,0.3,0.6c0.3,0,0.5,0.3,0.5,0.5c0,0.1,0,0.1,0,0.3
		c0,0.1,0.1,0,0.1,0.1c0.1,0.1,0.1,0.6,0,1h0.1l0.1-0.6c0-0.3-0.1-0.5-0.3-0.6c0,0,0-0.4,0-0.5c0-0.3-0.1-0.4-0.4-0.4
		c0-0.3-0.1-0.5-0.3-0.8c-0.1-0.1-0.1-0.1-0.4-0.1c0-0.3-0.3-0.5-0.5-0.5H26c0-0.4-0.3-0.6-0.6-0.6l-0.3,0.1
		c-0.1-0.1-0.3-0.4-0.5-0.4c-0.5-0.1-0.8,0.3-0.8,0.3c-0.1-0.1-0.3-0.4-0.4-0.4c-0.4,0-0.4,0.1-0.6,0.3c-0.1-0.3-0.3-0.3-0.5-0.3
		c-0.3,0-0.5,0-0.8,0.3l-0.3,0.3c0,0,0,0-0.1,0.1C21,357,21,357,21,357s0,0.5-0.3,0.9c0.5-0.5,1.5,1,0.5,2.2c0.3-0.3,0.8-0.8,1-0.6
		c0,0,0.1,0,0.3,0l0.1,0.1c0.1,0.1,0,0.1,0.1,0.4c0,0,0.5-0.1,0.5,0.5C22.9,360.4,22.9,360.7,22.4,360.9l0.4,0.3l0.4-0.3H22.4z"/>
	<path fill="#004684" d="M15.3,361.1c0.9-0.4,2.2,0,2.2,0v0.1h-1.4l-0.8,0.4l-0.8-0.3h-1.4v-0.1C13.3,361.1,14.5,360.7,15.3,361.1"
		/>
	<path fill="none" stroke="#004684" stroke-width="9.700000e-02" d="M15.3,361.1c0.9-0.4,2.2,0,2.2,0v0.1h-1.4l-0.8,0.4l-0.8-0.3
		h-1.4v-0.1C13.3,361.1,14.5,360.7,15.3,361.1"/>
	<path fill="#004684" d="M34.8,361.1c0.9-0.4,2.2,0,2.2,0v0.1h-1.4l-0.8,0.4l-0.8-0.3h-1.4v-0.1C32.8,361.1,34,360.7,34.8,361.1"/>
	<path fill="none" stroke="#004684" stroke-width="9.700000e-02" d="M34.8,361.1c0.9-0.4,2.2,0,2.2,0v0.1h-1.4l-0.8,0.4l-0.8-0.3
		h-1.4v-0.1C32.8,361.1,34,360.7,34.8,361.1"/>
</g>
<circle fill="#FFFFFF" cx="25.2" cy="370.4" r="2"/>
<circle fill="#FFFFFF" cx="31.5" cy="375.7" r="2"/>
<circle fill="#FFFFFF" cx="19" cy="375.7" r="2"/>
<g>
	<path fill="#CE4032" d="M26,408l11.3,28.8h-2.9l-3.6-8.9H17.7l-3.4,8.9h-2.9L22.9,408H26z M30,425.6l-5.6-14.8l-5.7,14.8H30z"/>
	<path fill="#CE4032" d="M53.3,408c1.3,0,2.4,0.1,3.4,0.4c1.1,0.3,2,0.6,2.9,1.1c0.9,0.5,1.5,1.3,2,2.2c0.5,0.9,0.8,2,0.8,3.3
		c0,0.8-0.1,1.5-0.4,2.2c-0.3,0.8-0.6,1.4-1,1.9c-0.4,0.6-1,1-1.5,1.5c-0.6,0.4-1.3,0.6-2,0.9v0.1c1.9,0.3,3.3,1,4.5,2.3
		c1.1,1.3,1.7,2.8,1.7,4.7c0,0.5,0,1-0.1,1.5c-0.1,0.6-0.3,1.1-0.5,1.8c-0.3,0.6-0.6,1.1-1,1.8c-0.5,0.6-1,1.1-1.8,1.5
		c-0.8,0.4-1.7,0.8-2.8,1.1c-1.1,0.3-2.4,0.4-4.1,0.4H41.1V408H53.3z M53.3,420.6c1.1,0,2-0.1,2.8-0.4c0.8-0.3,1.5-0.6,2-1
		c0.5-0.4,0.9-1,1.3-1.5c0.3-0.6,0.4-1.3,0.4-1.9c0-3.6-2.2-5.4-6.5-5.4h-9.4v10.3h9.4V420.6z M53.3,434.5c1,0,2-0.1,2.9-0.3
		s1.8-0.5,2.4-0.9c0.6-0.5,1.3-1,1.7-1.8c0.4-0.8,0.6-1.8,0.6-2.9c0-1.9-0.6-3.3-1.9-4.2c-1.3-0.9-3.2-1.4-5.6-1.4H44v11.5H53.3z"/>
	<path fill="#CE4032" d="M82.5,408c1.1,0,2.3,0.1,3.3,0.4c1,0.3,2,0.8,2.8,1.4c0.8,0.6,1.4,1.4,1.9,2.3c0.5,1,0.8,2,0.8,3.3
		c0,1.8-0.5,3.4-1.4,4.7c-0.9,1.4-2.3,2.2-4.2,2.5v0.1c0.9,0.1,1.8,0.4,2.3,0.8c0.6,0.4,1.1,0.8,1.5,1.4c0.4,0.5,0.6,1.3,0.9,1.9
		c0.1,0.8,0.3,1.5,0.4,2.4c0,0.5,0,1,0.1,1.8c0,0.8,0.1,1.4,0.1,2.2c0.1,0.8,0.3,1.4,0.4,2c0.1,0.6,0.4,1.1,0.8,1.5h-3.1
		c-0.1-0.3-0.3-0.6-0.4-1c-0.1-0.4-0.1-0.8-0.3-1.3c0-0.4-0.1-0.8-0.1-1.3c0-0.4,0-0.8-0.1-1c0-1-0.1-2-0.3-3.1
		c-0.1-1-0.4-1.9-0.8-2.7c-0.4-0.8-1-1.4-1.7-1.9c-0.8-0.5-1.8-0.6-3.1-0.6H72v12.8h-2.8V408H82.5z M82.2,421.8
		c0.9,0,1.7-0.1,2.4-0.4c0.8-0.3,1.4-0.6,2-1.1c0.5-0.5,1-1,1.4-1.8c0.4-0.6,0.5-1.5,0.5-2.4c0-1.8-0.5-3.2-1.5-4.2
		c-1-1-2.6-1.5-4.7-1.5H72.2v11.3h10.1V421.8z"/>
	<path fill="#CE4032" d="M109,408l11.3,28.8h-3.1l-3.6-8.9h-13l-3.4,8.9h-2.9l11.5-28.8H109z M112.8,425.6l-5.6-14.8l-5.7,14.8
		H112.8z"/>
	<path fill="#CE4032" d="M128,408l9.6,25.2l9.9-25.2h4.1v28.8h-2.8v-24.9h-0.1l-9.7,25h-2.5l-9.4-24.9h-0.1v24.9h-2.8V408H128z"/>
	<path fill="#CE4032" d="M160.4,431.1c0.5,1,1.1,1.8,2,2.4c0.9,0.6,1.9,1,3.1,1.3c1.1,0.3,2.4,0.4,3.7,0.4c0.8,0,1.5-0.1,2.4-0.4
		c0.9-0.3,1.7-0.5,2.4-1c0.8-0.5,1.4-1,1.9-1.8c0.5-0.8,0.8-1.7,0.8-2.7c0-0.8-0.1-1.5-0.5-2c-0.4-0.6-0.9-1.1-1.4-1.5
		c-0.6-0.4-1.3-0.8-1.9-1s-1.4-0.5-2-0.6l-6.4-1.5c-0.9-0.3-1.7-0.5-2.4-0.8c-0.8-0.4-1.5-0.8-2-1.3c-0.6-0.5-1-1.1-1.4-2
		c-0.4-0.8-0.5-1.8-0.5-2.8c0-0.6,0.1-1.5,0.4-2.4c0.3-0.9,0.8-1.8,1.5-2.7s1.8-1.5,3.1-2.2c1.3-0.6,2.9-0.9,5-0.9
		c1.4,0,2.8,0.1,4.1,0.5c1.3,0.4,2.4,0.9,3.4,1.7c1,0.8,1.8,1.7,2.3,2.8c0.6,1.1,0.9,2.4,0.9,4h-2.8c0-1.1-0.3-2-0.8-2.9
		c-0.4-0.8-1-1.5-1.8-2c-0.8-0.5-1.5-1-2.4-1.3c-0.9-0.3-1.9-0.4-2.9-0.4c-0.9,0-1.9,0.1-2.7,0.3c-0.9,0.3-1.7,0.5-2.3,1
		c-0.6,0.4-1.1,1-1.7,1.8c-0.4,0.8-0.6,1.7-0.6,2.7c0,0.6,0.1,1.3,0.4,1.8c0.3,0.5,0.5,0.9,0.9,1.3c0.4,0.4,0.9,0.6,1.4,0.9
		c0.5,0.3,1,0.4,1.7,0.5l7,1.8c1,0.3,2,0.6,2.9,1s1.7,0.9,2.4,1.4c0.6,0.6,1.3,1.3,1.7,2.2c0.4,0.9,0.6,1.8,0.6,3.1
		c0,0.4,0,0.8-0.1,1.3c-0.1,0.5-0.3,1.1-0.5,1.7c-0.3,0.6-0.6,1.3-1.1,1.8c-0.5,0.6-1.1,1.1-1.9,1.7c-0.8,0.5-1.8,0.9-3.1,1.3
		c-1.3,0.3-2.7,0.5-4.3,0.5c-1.7,0-3.3-0.3-4.7-0.6c-1.4-0.4-2.7-1-3.7-1.8c-1-0.8-1.8-1.8-2.4-3.1c-0.5-1.3-0.8-2.8-0.8-4.6h2.8
		C159.8,428.9,160,430,160.4,431.1z"/>
	<path fill="#CE4032" d="M184.5,416.8c0.5-1.8,1.4-3.4,2.6-4.8s2.6-2.5,4.2-3.3c1.7-0.8,3.7-1.3,6-1.3s4.2,0.4,6,1.3
		c1.7,0.8,3.1,1.9,4.2,3.3s2,2.9,2.6,4.8c0.5,1.8,0.9,3.7,0.9,5.7c0,2-0.3,4-0.9,5.7c-0.5,1.8-1.4,3.4-2.6,4.7s-2.6,2.4-4.2,3.3
		c-1.7,0.8-3.7,1.3-6,1.3s-4.2-0.4-6-1.3c-1.7-0.8-3.2-1.9-4.2-3.3s-2-2.9-2.6-4.7s-0.9-3.7-0.9-5.7
		C183.6,420.5,183.9,418.6,184.5,416.8z M186.9,427.1c0.4,1.5,1,2.9,1.9,4.1c0.9,1.1,2,2.2,3.3,2.9c1.4,0.8,3.1,1.1,5,1.1
		c1.9,0,3.6-0.4,4.8-1.1c1.3-0.8,2.4-1.7,3.3-2.9c0.9-1.1,1.5-2.6,1.9-4.1c0.4-1.5,0.6-3.1,0.6-4.6c0-1.5-0.3-3.2-0.6-4.6
		c-0.4-1.5-1-2.8-1.9-4.1c-0.9-1.1-2-2.2-3.3-2.9c-1.4-0.8-2.9-1.1-4.8-1.1c-1.9,0-3.6,0.4-5,1.1c-1.4,0.8-2.6,1.7-3.3,2.9
		c-0.9,1.1-1.5,2.5-1.9,4.1c-0.4,1.5-0.6,3.1-0.6,4.6C186.3,424,186.5,425.6,186.9,427.1z"/>
	<path fill="#CE4032" d="M219.3,408l16.8,24.4h0.1V408h2.8v28.8h-3.2L219,412.4h-0.1v24.4h-2.8V408H219.3z"/>
	<path fill="#CE4032" d="M278.2,413.7c-0.5-0.9-1.3-1.7-2-2.2c-0.8-0.6-1.7-1-2.7-1.4c-0.9-0.3-1.9-0.5-3.1-0.5
		c-1.9,0-3.6,0.4-5,1.1c-1.4,0.8-2.5,1.7-3.3,2.9c-0.9,1.1-1.5,2.5-1.9,4.1c-0.4,1.5-0.6,3.1-0.6,4.6c0,1.5,0.3,3.1,0.6,4.6
		s1,2.9,1.9,4.1s2,2.2,3.3,2.9c1.4,0.8,3.1,1.1,5,1.1c1.4,0,2.5-0.3,3.7-0.8c1-0.5,2-1.1,2.8-2c0.8-0.9,1.4-1.8,1.9-2.9
		c0.5-1.1,0.8-2.3,0.9-3.6h2.8c-0.1,1.8-0.6,3.4-1.3,4.8c-0.6,1.4-1.5,2.7-2.5,3.7c-1,1-2.2,1.8-3.6,2.3s-2.9,0.8-4.6,0.8
		c-2.3,0-4.2-0.4-6-1.3c-1.7-0.8-3.2-1.9-4.2-3.3c-1.1-1.4-2-2.9-2.5-4.7c-0.5-1.8-0.9-3.7-0.9-5.7s0.3-4,0.9-5.7
		c0.5-1.8,1.4-3.4,2.5-4.8s2.5-2.6,4.2-3.3c1.7-0.8,3.7-1.3,6-1.3c1.4,0,2.7,0.3,4.1,0.6c1.3,0.4,2.5,1,3.6,1.8
		c1,0.8,1.9,1.8,2.7,2.9c0.8,1.1,1.1,2.6,1.4,4h-2.8C279.2,415.6,278.8,414.6,278.2,413.7z"/>
	<path fill="#CE4032" d="M299.5,408l11.3,28.8h-2.9l-3.6-8.9h-13.1l-3.4,8.9h-2.9l11.6-28.8H299.5z M303.4,425.6l-5.6-14.8
		l-5.7,14.8H303.4z"/>
	<path fill="#CE4032" d="M317.7,408l16.8,24.4h0.1V408h2.8v28.8h-3.1l-17-24.4h-0.1v24.4h-2.8V408H317.7z"/>
	<path fill="#CE4032" d="M364.3,413.7c-0.5-0.9-1.3-1.7-2-2.2c-0.8-0.6-1.7-1-2.7-1.4c-0.9-0.3-1.9-0.5-3.1-0.5
		c-1.9,0-3.6,0.4-5,1.1c-1.4,0.8-2.6,1.7-3.3,2.9c-0.9,1.1-1.5,2.5-1.9,4.1c-0.4,1.5-0.6,3.1-0.6,4.6c0,1.5,0.3,3.1,0.6,4.6
		s1,2.9,1.9,4.1s2,2.2,3.3,2.9c1.4,0.8,3.1,1.1,5,1.1c1.4,0,2.6-0.3,3.7-0.8c1-0.5,2-1.1,2.8-2c0.8-0.9,1.4-1.8,1.9-2.9
		c0.5-1.1,0.8-2.3,0.9-3.6h2.8c-0.1,1.8-0.6,3.4-1.3,4.8c-0.6,1.4-1.5,2.7-2.6,3.7c-1,1-2.2,1.8-3.6,2.3c-1.4,0.5-2.9,0.8-4.6,0.8
		c-2.3,0-4.2-0.4-6-1.3c-1.7-0.8-3.2-1.9-4.2-3.3c-1.1-1.4-2-2.9-2.5-4.7c-0.5-1.8-0.9-3.7-0.9-5.7s0.3-4,0.9-5.7
		c0.5-1.8,1.4-3.4,2.5-4.8s2.6-2.6,4.2-3.3c1.7-0.8,3.7-1.3,6-1.3c1.4,0,2.7,0.3,4.1,0.6c1.3,0.4,2.5,1,3.6,1.8
		c1,0.8,1.9,1.8,2.7,2.9c0.8,1.1,1.1,2.6,1.4,4h-2.8C365.2,415.6,364.8,414.6,364.3,413.7z"/>
	<path fill="#CE4032" d="M393.8,408v2.3h-17.2v10.5h16.1v2.3h-16.1v11.3H394v2.3h-20.1V408H393.8z"/>
	<path fill="#CE4032" d="M412.3,408c1.1,0,2.3,0.1,3.3,0.4c1,0.3,2,0.8,2.8,1.4c0.8,0.6,1.4,1.4,1.9,2.3c0.5,1,0.8,2,0.8,3.3
		c0,1.8-0.5,3.4-1.4,4.7c-0.9,1.4-2.3,2.2-4.2,2.5v0.1c0.9,0.1,1.8,0.4,2.3,0.8c0.6,0.4,1.1,0.8,1.5,1.4c0.4,0.5,0.6,1.3,0.9,1.9
		c0.1,0.8,0.3,1.5,0.4,2.4c0,0.5,0,1,0.1,1.8c0,0.8,0.1,1.4,0.1,2.2c0.1,0.8,0.3,1.4,0.4,2c0.1,0.6,0.4,1.1,0.8,1.5H419
		c-0.1-0.3-0.3-0.6-0.4-1c-0.1-0.4-0.1-0.8-0.3-1.3c0-0.4-0.1-0.8-0.1-1.3c0-0.4,0-0.8-0.1-1c0-1-0.1-2-0.3-3.1
		c-0.1-1-0.4-1.9-0.8-2.7c-0.4-0.8-1-1.4-1.7-1.9c-0.8-0.5-1.8-0.6-3.1-0.6h-10.5v12.8h-2.8V408H412.3z M412.1,421.8
		c0.9,0,1.7-0.1,2.4-0.4s1.4-0.6,2-1.1c0.5-0.5,1-1,1.4-1.8c0.4-0.6,0.5-1.5,0.5-2.4c0-1.8-0.5-3.2-1.5-4.2c-1-1-2.5-1.5-4.7-1.5
		H402v11.3h10.1V421.8z"/>
	<path fill="#CE4032" d="M459.6,413.7c-0.5-0.9-1.3-1.7-2-2.2c-0.8-0.6-1.7-1-2.7-1.4c-0.9-0.3-1.9-0.5-3.1-0.5
		c-1.9,0-3.6,0.4-5,1.1c-1.4,0.8-2.5,1.7-3.3,2.9c-0.9,1.1-1.5,2.5-1.9,4.1c-0.4,1.5-0.6,3.1-0.6,4.6c0,1.5,0.3,3.1,0.6,4.6
		c0.4,1.5,1,2.9,1.9,4.1s2,2.2,3.3,2.9c1.4,0.8,3.1,1.1,5,1.1c1.4,0,2.5-0.3,3.7-0.8c1-0.5,2-1.1,2.8-2c0.8-0.9,1.4-1.8,1.9-2.9
		c0.5-1.1,0.8-2.3,0.9-3.6h2.8c-0.1,1.8-0.6,3.4-1.3,4.8c-0.6,1.4-1.5,2.7-2.5,3.7c-1,1-2.2,1.8-3.6,2.3c-1.4,0.5-2.9,0.8-4.6,0.8
		c-2.3,0-4.2-0.4-6-1.3c-1.7-0.8-3.2-1.9-4.2-3.3c-1.1-1.4-2-2.9-2.6-4.7c-0.5-1.8-0.9-3.7-0.9-5.7s0.3-4,0.9-5.7
		c0.5-1.8,1.4-3.4,2.6-4.8s2.5-2.6,4.2-3.3c1.7-0.8,3.7-1.3,6-1.3c1.4,0,2.7,0.3,4.1,0.6c1.3,0.4,2.6,1,3.6,1.8
		c1,0.8,1.9,1.8,2.7,2.9c0.8,1.1,1.1,2.6,1.4,4h-2.8C460.5,415.6,460.1,414.6,459.6,413.7z"/>
	<path fill="#CE4032" d="M489.2,408v2.3H472v10.5h16.1v2.3H472v11.3h17.3v2.3h-20.1V408H489.2z"/>
	<path fill="#CE4032" d="M497.5,408l16.8,24.4h0.1V408h2.8v28.8h-3.1l-17-24.4l0,0v24.4h-2.8V408H497.5z"/>
	<path fill="#CE4032" d="M543.9,408v2.3h-10.1v26.5H531v-26.4H521v-2.3h22.9V408z"/>
	<path fill="#CE4032" d="M567.8,408v2.3h-17.2v10.5h16.1v2.3h-16.1v11.3h17.3v2.3h-20.1V408H567.8z"/>
	<path fill="#CE4032" d="M586.2,408c1.1,0,2.3,0.1,3.3,0.4c1,0.3,2,0.8,2.8,1.4c0.8,0.6,1.4,1.4,1.9,2.3c0.5,1,0.8,2,0.8,3.3
		c0,1.8-0.5,3.4-1.4,4.7c-0.9,1.4-2.3,2.2-4.2,2.5v0.1c0.9,0.1,1.8,0.4,2.3,0.8c0.6,0.4,1.1,0.8,1.5,1.4c0.4,0.5,0.6,1.3,0.9,1.9
		c0.1,0.8,0.3,1.5,0.4,2.4c0,0.5,0,1,0.1,1.8c0,0.8,0.1,1.4,0.1,2.2c0.1,0.8,0.3,1.4,0.4,2c0.1,0.6,0.4,1.1,0.8,1.5h-3.1
		c-0.1-0.3-0.3-0.6-0.4-1c-0.1-0.4-0.1-0.8-0.3-1.3c0-0.4-0.1-0.8-0.1-1.3c0-0.4,0-0.8-0.1-1c0-1-0.1-2-0.3-3.1
		c-0.1-1-0.4-1.9-0.8-2.7c-0.4-0.8-1-1.4-1.7-1.9c-0.8-0.5-1.8-0.6-3.1-0.6h-10.5v12.8H573V408H586.2z M586,421.8
		c0.9,0,1.7-0.1,2.4-0.4s1.4-0.6,2-1.1c0.5-0.5,1-1,1.4-1.8c0.4-0.6,0.5-1.5,0.5-2.4c0-1.8-0.5-3.2-1.5-4.2c-1-1-2.5-1.5-4.7-1.5
		h-10.2v11.3H586V421.8z"/>
</g>
<path fill="#004684" d="M53.8,371.8c0,2.6,0.6,3.3,2.3,3.3v0.5h-7.4V375c1.4,0,2.3-0.5,2.3-3.2V359c0-2.5-0.6-3.3-2.3-3.3v-0.6h7.5
	c5.6,0,7.9,3.1,7.9,5.9c0,3.4-2.5,5.4-7.3,5.4c-0.9,0-1.7,0-3.2-0.3 M53.8,365.1c0.9,0.4,1.5,0.4,2.5,0.4c3.1,0,5-1.7,5-4.5
	c0-2.2-1.3-5.1-5-5.1h-2.5V365.1z"/>
<path fill="#004684" d="M65.2,368c-0.1,5.7,3.3,7.1,5.1,7.1s2.7-0.6,4.5-2.7v0.9c-1.5,1.9-3.1,2.7-5.2,2.7c-4,0-6.9-2.8-6.9-6.6
	c0-3.8,2.8-6.9,6.4-6.9c2.9,0,5.6,2.4,5.5,5.4 M72,367.3c0.1-2.8-1.8-4-3.4-4c-2.2,0-3.3,1.5-3.6,4H72z"/>
<path fill="#004684" d="M88.2,372.9c0,1.7,0.4,2.2,2.2,2.2v0.5h-6.8V375c1.7,0,2.2-0.4,2.2-1.5v-6.6c0-2-1.5-2.9-2.8-2.9
	s-2.4,0.8-3.6,2.4v6.2c0,1.9,0.3,2.4,2.2,2.4v0.6h-6.8V375c1.7,0,2.2-0.1,2.2-2.4v-7.1c0-1.5-0.4-1.9-2.2-1.9v-0.6l4-0.4h0.6v2.6
	c1.5-1.8,2.9-2.6,4.6-2.6c2.2,0,4.3,1.5,4.3,4.6"/>
<path fill="#004684" d="M104.4,372.9c0,1.7,0.4,2.2,2.2,2.2v0.5h-6.8V375c1.7,0,2.2-0.4,2.2-1.5v-6.6c0-2-1.5-2.9-2.8-2.9
	s-2.4,0.8-3.6,2.4v6.2c0,1.9,0.3,2.4,2.2,2.4v0.6H91V375c1.7,0,2.2-0.1,2.2-2.4v-7.1c0-1.5-0.4-1.9-2.2-1.9v-0.6l4-0.4h0.6v2.6
	c1.5-1.8,2.9-2.6,4.6-2.6c2.2,0,4.3,1.5,4.3,4.6"/>
<path fill="#004684" d="M135.8,355.7c-1.8,0-2.4,1.3-2.3,3.2l1,12.6c0.3,2.6,0.6,3.3,2.6,3.4v0.6h-7.4V375c1.7-0.3,2.3-1,2.2-3.1
	l-1-13.3h-0.1l-6.9,17h-0.5l-6.9-17h-0.1l-1.1,12.6c-0.1,2,0.6,3.3,2.7,3.7v0.6h-6.4V375c2-0.3,2.4-1.5,2.7-3.8l1.3-14.2
	c-0.8-0.9-1.5-1.3-2.7-1.4v-0.6h5.2l6.5,16.2l6.6-16.2h4.8"/>
<path fill="#004684" d="M139.2,368c-0.1,5.7,3.3,7.1,5.1,7.1c1.8,0,2.7-0.6,4.5-2.7v0.9c-1.5,1.9-3.1,2.7-5.2,2.7
	c-4,0-6.9-2.8-6.9-6.6c0-3.8,2.8-6.9,6.4-6.9c2.9,0,5.6,2.4,5.5,5.4 M146.1,367.3c0.1-2.8-1.8-4-3.4-4c-2.2,0-3.3,1.5-3.6,4H146.1z"
	/>
<path fill="#004684" d="M162.7,373.2c0,1.4,0.5,1.9,2.2,1.9v0.5h-7.4c-5.4,0-7.4-3.6-7.4-6.6c0-3.6,2.7-6.5,6-6.5
	c1.4,0,2.7,0.5,4.2,1.5v-7.8c0-1.8-0.4-2.2-1.7-2.2h-0.8v-0.6l4.2-0.4h0.6 M160.1,365.5c-1-1.4-2.4-2.2-3.7-2.2
	c-2.3,0-3.8,2-3.8,5.1s1.4,6.5,5.6,6.5c1.4,0,2-0.5,2-1.9v-7.5H160.1z"/>
<path fill="#004684" d="M170.7,373.3c0,1.3,0.4,1.8,2.2,1.8v0.5h-7V375c1.9,0,2.4-0.3,2.4-1.8v-7.8c0-1.8-0.5-1.9-2.4-1.9v-0.6
	l4.2-0.4h0.6 M171.1,357.6c0,0.9-0.6,1.5-1.5,1.5s-1.5-0.8-1.5-1.5c0-0.9,0.8-1.5,1.5-1.5C170.5,356.1,171.1,356.7,171.1,357.6z"/>
<path fill="#004684" d="M184.2,367.1h-0.6c-0.5-2.3-2.2-3.8-4.2-3.8c-2.5,0-4.2,2.2-4.2,5.2c0,3.4,2.2,6.4,4.7,6.4
	c1.5,0,3.4-0.8,4.7-2.7v0.9c-1.4,1.9-3.3,2.8-5.6,2.8c-3.8,0-6.4-2.7-6.4-6.4c0-4,2.9-7,6.5-7c1.9,0,2.9,0.8,3.6,0.8
	c0.4,0,0.6-0.3,0.9-0.8h0.6"/>
<path fill="#004684" d="M190.4,373.3c0,1.3,0.4,1.8,2.2,1.8v0.5h-7V375c1.9,0,2.4-0.3,2.4-1.8v-7.8c0-1.8-0.5-1.9-2.4-1.9v-0.6
	l4.2-0.4h0.6 M190.7,357.6c0,0.9-0.6,1.5-1.5,1.5s-1.5-0.8-1.5-1.5c0-0.9,0.8-1.5,1.5-1.5S190.7,356.7,190.7,357.6z"/>
<path fill="#004684" d="M206.7,372.9c0,1.7,0.4,2.2,2.2,2.2v0.5h-6.8V375c1.7,0,2.2-0.4,2.2-1.5v-6.6c0-2-1.5-2.9-2.8-2.9
	s-2.4,0.8-3.6,2.4v6.2c0,1.9,0.3,2.4,2.2,2.4v0.6h-6.8V375c1.7,0,2.2-0.1,2.2-2.4v-7.1c0-1.5-0.4-1.9-2.2-1.9v-0.6l4-0.4h0.6v2.6
	c1.5-1.8,2.9-2.6,4.6-2.6c2.2,0,4.3,1.5,4.3,4.6"/>
<path fill="#004684" d="M210.9,368c-0.1,5.7,3.3,7.1,5.1,7.1s2.7-0.6,4.5-2.7v0.9c-1.5,1.9-3.1,2.7-5.2,2.7c-4,0-6.9-2.8-6.9-6.6
	c0-3.8,2.8-6.9,6.4-6.9c2.9,0,5.6,2.4,5.5,5.4 M217.9,367.3c0.1-2.8-1.8-4-3.4-4c-2.2,0-3.3,1.5-3.6,4H217.9z"/>
</svg>
